<?xml version="1.0" encoding="utf-8"?>
<!-- Generator: Adobe Illustrator 16.0.0, SVG Export Plug-In . SVG Version: 6.00 Build 0)  -->
<!DOCTYPE svg PUBLIC "-//W3C//DTD SVG 1.1//EN" "http://www.w3.org/Graphics/SVG/1.1/DTD/svg11.dtd">
<svg version="1.1" id="레이어_1" xmlns="http://www.w3.org/2000/svg" xmlns:xlink="http://www.w3.org/1999/xlink" x="0px"
	 y="0px" width="116.189px" height="52.173px" viewBox="0 0 116.189 52.173" enable-background="new 0 0 116.189 52.173"
	 xml:space="preserve">
<g>
	<polygon fill="#002E6D" points="0,30.298 4.567,30.298 4.567,39.807 4.638,39.807 12.378,30.298 17.191,30.298 8.576,40.158 
		18.098,52.173 12.517,52.173 4.638,41.585 4.567,41.585 4.567,52.173 0,52.173 	"/>
	<path fill="#002E6D" d="M44.541,37.187c-0.038,0.171-2.492,11.088-2.492,11.088s-3.708-10.939-3.759-11.088h-2.051
		c-0.047,0.155-3.425,11.281-3.425,11.281s-2.786-11.115-2.827-11.281h-3.669c0.079,0.277,4.147,14.826,4.192,14.987h3.454
		c0.051-0.152,3.174-9.578,3.174-9.578s3.47,9.433,3.524,9.578h3.489c0.042-0.167,3.606-14.717,3.673-14.987H44.541z"/>
	<path fill="#002E6D" d="M59.57,49.829v2.345h4.03V41.996c0-2.681-0.753-5.16-6.214-5.16c-4.333,0-6.647,1.613-6.703,4.664h4.312
		c0.004-0.064,0.008-0.131,0.008-0.131c0.06-1.056,0.187-3.256,2.346-3.256c1.558,0,2.221,0.922,2.221,3.084v2.664l-0.105,0.004
		c-2.322,0.092-9.383,0.371-9.383,4.969c0,2.105,1.961,3.691,4.562,3.691C58.01,52.525,59.57,49.829,59.57,49.829 M56.297,50.544
		c-1.264,0-2.047-0.864-2.047-2.253c0-1.785,1.75-2.843,5.199-3.147l0.121-0.009v1.239C59.57,48.445,58.446,50.544,56.297,50.544"/>
	<path fill="#002E6D" d="M74.468,52.525c0.943,0,1.874-0.088,2.86-0.182l0.017-0.001v-1.991c-0.598,0.163-1.261,0.193-1.787,0.193
		c-1.711,0-2.291-0.657-2.291-2.606v-9.122h4.71v-1.629h-4.71v-5.836c-0.301,0.166-3.922,2.152-4.029,2.211v3.625H66.11v1.629h3.128
		v9.602C69.238,51.839,71.239,52.525,74.468,52.525"/>
	<path fill="#002E6D" d="M87.474,52.526c2.393,0,3.426-0.297,5.3-1.022v-1.366c-0.89,0.304-2.019,0.629-3.155,0.629
		c-4.919,0-6.51-5.22-6.51-7.749v-0.111h9.982v-0.463c0-3.616-2.37-5.608-6.671-5.608c-4.871,0-7.34,2.403-7.34,7.142
		C79.08,51.692,84.95,52.526,87.474,52.526 M83.111,41.404c0.145-0.989,0.749-3.29,3.167-3.29c2.842,0,2.925,2.969,2.925,3.308
		v0.111h-6.112L83.111,41.404z"/>
	<path fill="#002E6D" d="M106.13,40.608v-3.756c-2.943,0.227-4.393,2.11-5.581,4.136l-0.146,0.237v-4.038h-4.031v14.987h4.031
		v-6.695C100.403,42.005,102.012,40.633,106.13,40.608"/>
	<g>
		<defs>
			<path id="SVGID_1_" d="M26.325,29.924v0.222c11.571-7.168,25.205-11.312,39.79-11.312c14.69,0,28.413,4.205,40.038,11.469V20.32
				c-11.788-6.379-25.26-10.028-39.562-10.108C51.376,13.162,37.572,20.111,26.325,29.924"/>
		</defs>
		<clipPath id="SVGID_2_">
			<use xlink:href="#SVGID_1_"  overflow="visible"/>
		</clipPath>
		
			<linearGradient id="SVGID_3_" gradientUnits="userSpaceOnUse" x1="398.4937" y1="927.0986" x2="399.4937" y2="927.0986" gradientTransform="matrix(79.8286 0 0 -79.8286 -31784.875 74029.25)">
			<stop  offset="0" style="stop-color:#00B9EF"/>
			<stop  offset="0.4" style="stop-color:#00B9EF"/>
			<stop  offset="1" style="stop-color:#4694D1"/>
		</linearGradient>
		<rect x="26.325" y="10.212" clip-path="url(#SVGID_2_)" fill="url(#SVGID_3_)" width="79.828" height="20.091"/>
	</g>
	<g>
		<defs>
			<path id="SVGID_4_" d="M26.325,18.775v1.413c11.863-6.367,25.411-9.985,39.79-9.985c0.16,0,0.319,0.008,0.476,0.009
				C71.928,9.176,77.436,8.63,83.068,8.63c11.729,0,22.914,2.352,33.121,6.604V5.953C105.871,2.104,94.711,0,83.068,0
				C62.343,0,42.635,6.591,26.325,18.775"/>
		</defs>
		<clipPath id="SVGID_5_">
			<use xlink:href="#SVGID_4_"  overflow="visible"/>
		</clipPath>
		
			<linearGradient id="SVGID_6_" gradientUnits="userSpaceOnUse" x1="399.1079" y1="926.5303" x2="400.1079" y2="926.5303" gradientTransform="matrix(89.8647 0 0 -89.8647 -35839.375 83272.375)">
			<stop  offset="0" style="stop-color:#ED6C00"/>
			<stop  offset="1" style="stop-color:#FDD000"/>
		</linearGradient>
		<rect x="26.325" clip-path="url(#SVGID_5_)" fill="url(#SVGID_6_)" width="89.865" height="20.188"/>
	</g>
</g>
</svg>
