<?xml version="1.0" encoding="utf-8"?>
<!-- Generator: Adobe Illustrator 16.0.0, SVG Export Plug-In . SVG Version: 6.00 Build 0)  -->
<!DOCTYPE svg PUBLIC "-//W3C//DTD SVG 1.1//EN" "http://www.w3.org/Graphics/SVG/1.1/DTD/svg11.dtd">
<svg version="1.1" id="레이어_1" xmlns="http://www.w3.org/2000/svg" xmlns:xlink="http://www.w3.org/1999/xlink" x="0px"
	 y="0px" width="454.934px" height="35.976px" viewBox="0 0 454.934 35.976" enable-background="new 0 0 454.934 35.976"
	 xml:space="preserve">
<g>
	<polygon fill="#FFFFFF" points="0,2.186 4.721,2.186 4.721,12.015 4.794,12.015 12.794,2.186 17.77,2.186 8.865,12.376 
		18.707,24.797 12.938,24.797 4.794,13.852 4.721,13.852 4.721,24.797 0,24.797 	"/>
	<path fill="#FFFFFF" d="M46.038,9.306c-0.04,0.178-2.576,11.461-2.576,11.461S39.628,9.461,39.576,9.306h-2.119
		c-0.05,0.16-3.541,11.66-3.541,11.66s-2.879-11.487-2.922-11.66h-3.792c0.08,0.286,4.286,15.323,4.333,15.491h3.572
		c0.05-0.157,3.277-9.901,3.277-9.901s3.587,9.75,3.643,9.901h3.607c0.043-0.173,3.727-15.211,3.797-15.491H46.038z"/>
	<path fill="#FFFFFF" d="M61.571,22.373v2.422h4.166V14.277c0-2.773-0.779-5.335-6.424-5.335c-4.479,0-6.869,1.667-6.927,4.82h4.458
		c0.003-0.065,0.007-0.135,0.007-0.135c0.063-1.092,0.193-3.364,2.425-3.364c1.611,0,2.296,0.952,2.296,3.186v2.755l-0.109,0.004
		c-2.401,0.095-9.698,0.384-9.698,5.136c0,2.176,2.025,3.815,4.714,3.815C59.959,25.159,61.571,22.373,61.571,22.373 M58.188,23.11
		c-1.306,0-2.115-0.892-2.115-2.327c0-1.844,1.809-2.938,5.374-3.255l0.125-0.009v1.281C61.571,20.942,60.41,23.11,58.188,23.11"/>
	<path fill="#FFFFFF" d="M76.969,25.159c0.974,0,1.936-0.091,2.957-0.188l0.018-0.001v-2.06c-0.619,0.17-1.303,0.199-1.847,0.199
		c-1.769,0-2.368-0.679-2.368-2.692v-9.429h4.867V9.306h-4.867V3.272c-0.311,0.173-4.053,2.226-4.164,2.285v3.748H68.33v1.684h3.234
		v9.927C71.564,24.45,73.633,25.159,76.969,25.159"/>
	<path fill="#FFFFFF" d="M90.41,25.16c2.475,0,3.542-0.308,5.479-1.057v-1.412c-0.919,0.314-2.087,0.65-3.261,0.65
		c-5.085,0-6.729-5.396-6.729-8.009v-0.115h10.317V14.74c0-3.738-2.45-5.798-6.896-5.798c-5.033,0-7.585,2.483-7.585,7.382
		C81.736,24.297,87.803,25.16,90.41,25.16 M85.901,13.664c0.151-1.021,0.775-3.4,3.275-3.4c2.936,0,3.022,3.069,3.022,3.419v0.114
		h-6.317L85.901,13.664z"/>
	<path fill="#FFFFFF" d="M109.694,12.843V8.959c-3.043,0.235-4.542,2.182-5.768,4.276l-0.153,0.243V9.306h-4.165v15.489h4.165
		v-6.919C103.774,14.286,105.438,12.868,109.694,12.843"/>
	<rect x="17.464" y="12.253" fill="#FFFFFF" width="7.522" height="3.09"/>
	<path fill="#FFFFFF" d="M115.675,12.003c0-0.56,0.218-1.064,0.654-1.511c0.437-0.446,0.945-0.669,1.528-0.669
		c0.582,0,1.094,0.223,1.542,0.669s0.67,0.951,0.67,1.511c0,0.583-0.223,1.092-0.67,1.528c-0.447,0.438-0.96,0.654-1.542,0.654
		c-0.583,0-1.092-0.217-1.528-0.654C115.893,13.095,115.675,12.586,115.675,12.003 M115.675,22.601c0-0.561,0.218-1.065,0.654-1.511
		c0.437-0.447,0.945-0.671,1.528-0.671c0.582,0,1.094,0.224,1.542,0.671c0.447,0.445,0.67,0.95,0.67,1.511
		c0,0.582-0.223,1.092-0.67,1.527s-0.96,0.654-1.542,0.654c-0.583,0-1.092-0.219-1.528-0.654
		C115.893,23.692,115.675,23.183,115.675,22.601"/>
	<path fill="#FFFFFF" d="M143.28,26.047h-7.043c-2.603,0-4.69-0.678-6.259-2.029c-1.568-1.353-2.352-3.533-2.352-6.546V0h4.249
		v17.013c0,1.098,0.109,1.984,0.325,2.659c0.217,0.677,0.529,1.207,0.938,1.589c0.407,0.384,0.879,0.639,1.415,0.767
		c0.536,0.127,1.123,0.192,1.761,0.192h6.966V26.047z"/>
	<path fill="#FFFFFF" d="M182.743,6.313c0-0.566,0.222-1.074,0.662-1.526s0.955-0.679,1.542-0.679c0.589,0,1.109,0.227,1.562,0.679
		c0.451,0.452,0.678,0.96,0.678,1.526c0,0.59-0.227,1.103-0.678,1.545c-0.452,0.44-0.973,0.661-1.562,0.661
		c-0.587,0-1.102-0.221-1.542-0.661C182.965,7.415,182.743,6.902,182.743,6.313"/>
	<path fill="#FFFFFF" d="M145.662,6.313c0-0.566,0.22-1.074,0.66-1.526c0.442-0.452,0.957-0.679,1.544-0.679
		c0.589,0,1.109,0.227,1.561,0.679s0.679,0.96,0.679,1.526c0,0.59-0.227,1.103-0.679,1.545c-0.452,0.44-0.972,0.661-1.561,0.661
		c-0.587,0-1.102-0.221-1.544-0.661C145.882,7.415,145.662,6.902,145.662,6.313"/>
	<rect x="146.04" y="11.68" fill="#FFFFFF" width="3.496" height="14.367"/>
	<path fill="#FFFFFF" d="M152.813,16.122c0-0.756-0.116-1.213-0.348-1.371c-0.232-0.158-0.63-0.163-1.196-0.017v-2.866
		c0.882-0.504,1.753-0.636,2.614-0.394c0.859,0.24,1.418,0.667,1.671,1.274c0.419-0.503,0.908-0.887,1.464-1.15
		c0.557-0.263,1.36-0.394,2.411-0.394c1.07,0,1.97,0.19,2.693,0.568c0.726,0.378,1.296,0.903,1.717,1.576
		c0.44,0.649,0.75,1.438,0.929,2.363c0.18,0.922,0.27,1.92,0.27,2.991v7.343h-3.435v-7.248c0-0.587-0.011-1.159-0.032-1.716
		c-0.021-0.557-0.115-1.045-0.284-1.465c-0.146-0.442-0.398-0.794-0.756-1.058c-0.355-0.261-0.861-0.394-1.513-0.394
		c-0.588,0-1.059,0.133-1.418,0.394c-0.355,0.264-0.639,0.604-0.848,1.024c-0.211,0.441-0.349,0.951-0.411,1.529
		c-0.063,0.577-0.095,1.181-0.095,1.811v7.122h-3.434V16.122z"/>
	<path fill="#FFFFFF" d="M171.338,6.07v10.965l5.608-5.325h4.537l-5.166,4.947c0.861,0.523,1.559,1.124,2.094,1.795
		c0.536,0.674,0.974,1.407,1.31,2.206c0.314,0.777,0.545,1.621,0.692,2.536c0.146,0.914,0.262,1.865,0.346,2.853h-3.435
		c-0.062-1.66-0.314-3.073-0.756-4.237c-0.44-1.167-1.345-2.097-2.71-2.789l-2.521,2.395v4.632h-3.496V6.07H171.338z"/>
	<rect x="183.217" y="11.68" fill="#FFFFFF" width="3.497" height="14.367"/>
	<path fill="#FFFFFF" d="M189.989,16.122c0-0.756-0.114-1.213-0.347-1.371c-0.23-0.158-0.628-0.163-1.195-0.017v-2.866
		c0.883-0.504,1.753-0.636,2.613-0.394c0.861,0.24,1.419,0.667,1.67,1.274c0.422-0.503,0.909-0.887,1.466-1.15
		c0.558-0.263,1.359-0.394,2.41-0.394c1.072,0,1.969,0.19,2.694,0.568c0.725,0.378,1.296,0.903,1.716,1.576
		c0.443,0.649,0.752,1.438,0.93,2.363c0.18,0.922,0.27,1.92,0.27,2.991v7.343h-3.435v-7.248c0-0.587-0.011-1.159-0.032-1.716
		c-0.021-0.557-0.114-1.045-0.284-1.465c-0.146-0.442-0.399-0.794-0.755-1.058c-0.357-0.261-0.862-0.394-1.513-0.394
		c-0.588,0-1.061,0.133-1.419,0.394c-0.356,0.264-0.641,0.604-0.849,1.024c-0.211,0.441-0.349,0.951-0.41,1.529
		c-0.064,0.577-0.096,1.181-0.096,1.811v7.122h-3.435V16.122z"/>
	<path fill="#FFFFFF" d="M217.614,16.404V29.18c0,2.101-0.494,3.67-1.48,4.711c-0.986,1.039-2.162,1.685-3.526,1.938
		c-1.344,0.252-2.739,0.182-4.189-0.206c-1.449-0.389-2.625-0.96-3.526-1.715v-3.026c1.216,0.734,2.389,1.259,3.509,1.575
		c1.124,0.314,2.106,0.42,2.945,0.314c0.841-0.104,1.512-0.44,2.017-1.007c0.501-0.567,0.766-1.387,0.787-2.458V25.29
		c-0.251,0.316-0.688,0.625-1.306,0.932c-0.62,0.302-1.401,0.454-2.347,0.454c-1.091,0-2.031-0.188-2.818-0.567
		c-0.788-0.378-1.443-0.891-1.969-1.543c-0.502-0.65-0.876-1.411-1.12-2.286c-0.241-0.87-0.36-1.811-0.36-2.818
		c0-0.965,0.099-1.933,0.298-2.898c0.198-0.967,0.541-1.837,1.024-2.615c0.481-0.756,1.123-1.376,1.921-1.858
		c0.799-0.482,1.795-0.725,2.991-0.725c1.135,0,2.053,0.199,2.756,0.599c0.705,0.399,1.202,0.809,1.496,1.229
		c0.315-0.882,0.924-1.423,1.826-1.621c0.904-0.2,1.774-0.007,2.615,0.581v2.741c-0.63,0-1.046,0.111-1.245,0.331
		C217.712,15.444,217.614,15.837,217.614,16.404 M210.875,14.356c-0.652,0-1.175,0.152-1.574,0.458
		c-0.4,0.304-0.703,0.698-0.914,1.182c-0.231,0.482-0.378,1.013-0.439,1.592c-0.064,0.576-0.096,1.149-0.096,1.716
		s0.031,1.119,0.096,1.653c0.062,0.537,0.198,1.005,0.408,1.403c0.189,0.421,0.483,0.75,0.882,0.992
		c0.397,0.24,0.933,0.362,1.605,0.362c0.65,0,1.186-0.116,1.606-0.347c0.419-0.23,0.755-0.545,1.008-0.946
		c0.251-0.419,0.425-0.901,0.521-1.447c0.095-0.547,0.141-1.135,0.141-1.765c0-0.567-0.041-1.136-0.125-1.701
		c-0.086-0.568-0.242-1.093-0.474-1.577c-0.232-0.46-0.556-0.839-0.976-1.133C212.123,14.505,211.567,14.356,210.875,14.356"/>
	<path fill="#FFFFFF" d="M334.13,17.956v3.833c0,0.685,0.121,1.106,0.363,1.267c0.24,0.163,0.713,0.153,1.419-0.028v2.746
		c-0.967,0.522-1.817,0.674-2.551,0.451c-0.734-0.22-1.251-0.592-1.555-1.115c-0.32,0.401-0.799,0.725-1.434,0.965
		c-0.633,0.242-1.312,0.363-2.037,0.363c-1.529,0-2.815-0.469-3.861-1.404c-1.046-0.937-1.568-2.247-1.568-3.937
		c0-1.509,0.533-2.727,1.598-3.652c1.065-0.925,2.404-1.388,4.015-1.388c0.543,0,1.03,0.095,1.465,0.286
		c0.431,0.191,0.736,0.378,0.917,0.559c0.021-0.523-0.16-1.021-0.541-1.493c-0.384-0.473-1.037-0.71-1.962-0.71
		c-0.785,0-1.5,0.126-2.143,0.377c-0.645,0.252-1.348,0.65-2.111,1.193v-3.441c0.662-0.361,1.353-0.632,2.065-0.815
		c0.716-0.181,1.505-0.271,2.37-0.271c1.79,0,3.156,0.525,4.102,1.57C333.629,14.356,334.111,15.905,334.13,17.956 M326.104,21.246
		c0,0.685,0.228,1.252,0.681,1.706c0.451,0.453,1.021,0.678,1.703,0.678c0.664,0,1.228-0.211,1.69-0.633
		c0.463-0.421,0.694-1.006,0.694-1.751c0-0.724-0.231-1.303-0.694-1.734c-0.463-0.433-1.026-0.649-1.69-0.649
		c-0.683,0-1.252,0.231-1.703,0.693C326.332,20.021,326.104,20.584,326.104,21.246"/>
	<path fill="#FFFFFF" d="M337.662,16.449c0-0.724-0.11-1.162-0.333-1.313c-0.221-0.152-0.603-0.156-1.146-0.017v-2.744
		c0.846-0.484,1.681-0.608,2.505-0.381c0.824,0.235,1.356,0.642,1.6,1.225c0.402-0.482,0.87-0.85,1.403-1.103
		c0.531-0.251,1.302-0.377,2.308-0.377c1.026,0,1.885,0.182,2.58,0.544c0.693,0.362,1.242,0.867,1.645,1.51
		c0.422,0.624,0.721,1.377,0.89,2.263c0.172,0.885,0.258,1.84,0.258,2.867v7.03h-3.29v-6.941c0-0.563-0.009-1.109-0.031-1.645
		c-0.02-0.531-0.109-1.001-0.271-1.401c-0.139-0.423-0.381-0.76-0.724-1.012c-0.343-0.251-0.824-0.378-1.447-0.378
		c-0.563,0-1.017,0.127-1.358,0.378c-0.343,0.252-0.614,0.578-0.815,0.98c-0.201,0.422-0.332,0.911-0.392,1.463
		c-0.06,0.555-0.091,1.132-0.091,1.736v6.819h-3.289V16.449z"/>
	<path fill="#FFFFFF" d="M357.308,11.74c0.904,0,1.649,0.151,2.231,0.455c0.585,0.3,0.996,0.593,1.237,0.874V6.852h3.32v14.757
		c0,0.543,0.1,0.932,0.301,1.162c0.201,0.232,0.604,0.347,1.209,0.347v2.625c-0.403,0.303-0.826,0.494-1.27,0.574
		c-0.442,0.08-0.854,0.071-1.236-0.029c-0.403-0.101-0.762-0.292-1.071-0.574c-0.313-0.281-0.539-0.634-0.68-1.057
		c-0.282,0.423-0.758,0.82-1.433,1.193c-0.674,0.372-1.554,0.557-2.642,0.557c-1.145,0-2.102-0.226-2.865-0.679
		c-0.767-0.452-1.378-1.04-1.841-1.764c-0.464-0.727-0.791-1.549-0.981-2.476c-0.192-0.925-0.287-1.86-0.287-2.808
		c0-0.944,0.115-1.84,0.348-2.686c0.229-0.845,0.589-1.577,1.071-2.201c0.502-0.623,1.131-1.122,1.885-1.494
		C355.361,11.928,356.261,11.74,357.308,11.74 M357.669,23.539c0.663,0,1.196-0.134,1.599-0.406s0.714-0.639,0.936-1.1
		c0.222-0.444,0.372-0.94,0.453-1.495c0.081-0.554,0.12-1.102,0.12-1.645c0-0.585-0.045-1.138-0.136-1.66
		c-0.091-0.523-0.257-0.985-0.497-1.389c-0.242-0.382-0.563-0.689-0.968-0.92c-0.4-0.231-0.915-0.348-1.535-0.348
		c-0.647,0-1.159,0.121-1.542,0.363c-0.382,0.241-0.663,0.554-0.845,0.935c-0.201,0.402-0.333,0.855-0.391,1.358
		c-0.062,0.503-0.092,1.027-0.092,1.568c0,0.544,0.03,1.097,0.092,1.66c0.058,0.563,0.198,1.077,0.422,1.539
		c0.201,0.464,0.492,0.836,0.874,1.116C356.542,23.4,357.045,23.539,357.669,23.539"/>
	<g>
		<defs>
			<path id="SVGID_1_" d="M230.724,0.221c-0.706,0.074-1.337,0.257-1.896,0.585v3.405c0.583-0.025,1.153,0.023,1.725,0.159
				c0.694,0.133,1.339,0.388,1.923,0.752c0.584,0.378,1.044,0.851,1.362,1.41l4.742,7.687l3.915,6.311l0.862,1.398l2.505,4.038
				h4.195V0.599h-4.438v17.364l-2.263-3.672l-0.862-1.399L236.11,2.52c-0.328-0.56-0.777-1.021-1.362-1.398
				c-0.595-0.377-1.229-0.619-1.92-0.753c-0.487-0.121-0.981-0.174-1.479-0.174C231.141,0.194,230.931,0.203,230.724,0.221"/>
		</defs>
		<use xlink:href="#SVGID_1_"  overflow="visible" fill="#FFFFFF"/>
		<clipPath id="SVGID_2_">
			<use xlink:href="#SVGID_1_"  overflow="visible"/>
		</clipPath>
		<rect x="228.828" y="0.194" clip-path="url(#SVGID_2_)" fill="#FFFFFF" width="21.229" height="25.771"/>
	</g>
	<g>
		<defs>
			<path id="SVGID_3_" d="M230.785,25.966l1.313,0.012h0.864L235.222,26V13.079c-0.086-0.14-2.319-4.106-2.808-4.85
				c-0.111-0.167-0.495-0.499-0.671-0.599c-0.024-0.013-0.049-0.027-0.075-0.04c-0.277-0.142-0.536-0.23-0.884-0.23V25.966z"/>
		</defs>
		<use xlink:href="#SVGID_3_"  overflow="visible" fill="#FFFFFF"/>
		<clipPath id="SVGID_4_">
			<use xlink:href="#SVGID_3_"  overflow="visible"/>
		</clipPath>
		<rect x="230.785" y="7.36" clip-path="url(#SVGID_4_)" fill="#FFFFFF" width="4.438" height="18.64"/>
	</g>
	<g>
		<defs>
			<path id="SVGID_5_" d="M256.735,22.884c-0.483-0.482-0.724-1.088-0.724-1.821c0-0.706,0.24-1.306,0.724-1.802
				c0.48-0.492,1.088-0.739,1.817-0.739c0.71,0,1.31,0.231,1.802,0.691c0.494,0.464,0.743,1.08,0.743,1.85
				c0,0.795-0.249,1.419-0.743,1.867c-0.492,0.453-1.092,0.678-1.802,0.678C257.823,23.607,257.215,23.364,256.735,22.884
				 M256.122,11.214c-0.759,0.195-1.496,0.485-2.203,0.871v3.669c0.814-0.578,1.565-1.002,2.252-1.271
				c0.687-0.27,1.449-0.403,2.285-0.403c0.986,0,1.685,0.254,2.092,0.756c0.409,0.505,0.602,1.036,0.58,1.594
				c-0.193-0.193-0.521-0.391-0.98-0.595c-0.463-0.205-0.981-0.307-1.563-0.307c-1.716,0-3.145,0.496-4.28,1.481
				c-1.138,0.985-1.706,2.285-1.706,3.893c0,1.804,0.559,3.203,1.675,4.203c1.114,0.996,2.489,1.495,4.117,1.495
				c0.775,0,1.497-0.13,2.175-0.386c0.676-0.258,1.185-0.602,1.529-1.03c0.321,0.559,0.872,0.955,1.656,1.189
				c0.783,0.236,1.69,0.077,2.723-0.481v-2.929c-0.755,0.193-1.257,0.204-1.516,0.032c-0.259-0.173-0.387-0.622-0.387-1.352v-4.089
				c-0.021-2.188-0.534-3.839-1.545-4.956c-1.009-1.115-2.468-1.675-4.377-1.675C257.726,10.925,256.883,11.021,256.122,11.214"/>
		</defs>
		<use xlink:href="#SVGID_5_"  overflow="visible" fill="#FFFFFF"/>
		<clipPath id="SVGID_6_">
			<use xlink:href="#SVGID_5_"  overflow="visible"/>
		</clipPath>
		<rect x="252.598" y="10.925" clip-path="url(#SVGID_6_)" fill="#FFFFFF" width="13.875" height="15.686"/>
	</g>
	<g>
		<defs>
			<path id="SVGID_7_" d="M268.383,5.713v5.696h-2.77v3.122h2.77v4.797c0,1.394,0.165,2.557,0.5,3.489
				c0.332,0.935,0.775,1.681,1.333,2.237c0.58,0.581,1.241,0.987,1.979,1.224c0.741,0.237,1.531,0.344,2.366,0.322h1.127v-3.25
				h-0.934c-0.342,0-0.681-0.038-1.013-0.112c-0.334-0.076-0.639-0.264-0.917-0.564c-0.258-0.277-0.468-0.712-0.63-1.304
				c-0.158-0.589-0.241-1.388-0.241-2.397v-4.441h3.284v-3.122h-3.251V5.713H268.383z"/>
		</defs>
		<use xlink:href="#SVGID_7_"  overflow="visible" fill="#FFFFFF"/>
		<clipPath id="SVGID_8_">
			<use xlink:href="#SVGID_7_"  overflow="visible"/>
		</clipPath>
		<rect x="265.614" y="5.713" clip-path="url(#SVGID_8_)" fill="#FFFFFF" width="10.075" height="20.909"/>
	</g>
	<g>
		<defs>
			<path id="SVGID_9_" d="M286.495,11.44v7.241c0,0.666-0.039,1.295-0.113,1.884c-0.075,0.59-0.221,1.109-0.436,1.563
				c-0.216,0.43-0.51,0.771-0.885,1.029c-0.375,0.256-0.852,0.386-1.432,0.386c-0.624,0-1.107-0.13-1.45-0.386
				c-0.342-0.258-0.6-0.611-0.771-1.063c-0.17-0.45-0.277-0.961-0.321-1.529c-0.042-0.567-0.065-1.164-0.065-1.784V11.44h-3.507
				v7.501c0,2.23,0.46,4.061,1.384,5.487c0.923,1.426,2.372,2.139,4.345,2.139c1.052,0,1.888-0.144,2.511-0.434
				c0.623-0.289,1.104-0.67,1.449-1.143c0.322,0.601,0.902,1.029,1.736,1.287c0.838,0.259,1.717,0.129,2.64-0.386v-2.929
				c-0.579,0.174-0.987,0.174-1.222,0c-0.236-0.171-0.354-0.645-0.354-1.415V11.44H286.495z"/>
		</defs>
		<use xlink:href="#SVGID_9_"  overflow="visible" fill="#FFFFFF"/>
		<clipPath id="SVGID_10_">
			<use xlink:href="#SVGID_9_"  overflow="visible"/>
		</clipPath>
		<rect x="277.514" y="11.44" clip-path="url(#SVGID_10_)" fill="#FFFFFF" width="14.064" height="15.127"/>
	</g>
	<g>
		<defs>
			<path id="SVGID_11_" d="M292.43,11.475v2.895c0.644,0,1.1,0.108,1.368,0.321c0.267,0.217,0.402,0.602,0.402,1.16v10.202h3.477
				v-8.11c0-1.074,0.348-1.903,1.046-2.495c0.696-0.588,1.603-0.885,2.72-0.885h1.576v-3.153h-2.737
				c-0.793,0-1.459,0.149-1.993,0.451c-0.538,0.3-0.914,0.611-1.127,0.933c-0.065-0.193-0.236-0.396-0.515-0.611
				c-0.279-0.215-0.645-0.386-1.096-0.515c-0.429-0.15-0.911-0.253-1.448-0.306c-0.156-0.018-0.317-0.025-0.479-0.025
				C293.239,11.336,292.84,11.382,292.43,11.475"/>
		</defs>
		<use xlink:href="#SVGID_11_"  overflow="visible" fill="#FFFFFF"/>
		<clipPath id="SVGID_12_">
			<use xlink:href="#SVGID_11_"  overflow="visible"/>
		</clipPath>
		<rect x="292.43" y="11.336" clip-path="url(#SVGID_12_)" fill="#FFFFFF" width="10.589" height="14.717"/>
	</g>
	<g>
		<defs>
			<path id="SVGID_13_" d="M307.875,14.676c0.504-0.504,1.207-0.757,2.109-0.757c0.901,0,1.581,0.247,2.043,0.741
				c0.461,0.494,0.691,1.298,0.691,2.414h-5.6C307.12,15.979,307.373,15.179,307.875,14.676 M305.139,12.872
				c-1.061,1.3-1.593,3.031-1.593,5.199v1.576c0,1.031,0.168,1.975,0.501,2.834c0.332,0.857,0.807,1.589,1.431,2.187
				c0.601,0.623,1.331,1.102,2.189,1.434c0.858,0.333,1.802,0.499,2.832,0.499c0.9,0,1.807-0.096,2.721-0.29
				c0.911-0.192,1.731-0.578,2.462-1.157v-3.767c-0.839,0.816-1.718,1.357-2.64,1.625c-0.923,0.271-1.706,0.401-2.35,0.401
				c-0.559,0-1.057-0.097-1.498-0.289c-0.439-0.194-0.81-0.45-1.108-0.772c-0.323-0.301-0.564-0.639-0.727-1.013
				c-0.159-0.378-0.24-0.745-0.24-1.11h9.11c0.191-3.326-0.264-5.707-1.37-7.146c-1.104-1.437-2.719-2.157-4.844-2.157
				C307.828,10.925,306.203,11.575,305.139,12.872"/>
		</defs>
		<use xlink:href="#SVGID_13_"  overflow="visible" fill="#FFFFFF"/>
		<clipPath id="SVGID_14_">
			<use xlink:href="#SVGID_13_"  overflow="visible"/>
		</clipPath>
		<rect x="303.546" y="10.925" clip-path="url(#SVGID_14_)" fill="#FFFFFF" width="12.875" height="15.676"/>
	</g>
	<g>
		<defs>
			<path id="SVGID_15_" d="M394.293,14.664c0.503-0.504,1.203-0.756,2.102-0.756c0.897,0,1.576,0.246,2.035,0.738
				c0.46,0.492,0.691,1.293,0.691,2.406h-5.581C393.541,15.962,393.792,15.164,394.293,14.664 M391.568,12.866
				c-1.057,1.294-1.587,3.021-1.587,5.18v1.571c0,1.027,0.165,1.968,0.496,2.822c0.331,0.855,0.806,1.582,1.429,2.181
				c0.598,0.62,1.325,1.096,2.18,1.427s1.798,0.499,2.822,0.499c0.898,0,1.8-0.098,2.711-0.29c0.909-0.191,1.725-0.577,2.452-1.154
				v-3.753c-0.834,0.813-1.711,1.353-2.63,1.619c-0.92,0.269-1.7,0.403-2.342,0.403c-0.555,0-1.053-0.1-1.489-0.292
				c-0.438-0.19-0.809-0.446-1.108-0.768c-0.32-0.3-0.559-0.637-0.723-1.009c-0.159-0.376-0.238-0.745-0.238-1.106h9.076
				c0.192-3.315-0.263-5.689-1.364-7.122c-1.1-1.432-2.71-2.149-4.826-2.149C394.247,10.925,392.626,11.572,391.568,12.866"/>
		</defs>
		<use xlink:href="#SVGID_15_"  overflow="visible" fill="#FFFFFF"/>
		<clipPath id="SVGID_16_">
			<use xlink:href="#SVGID_15_"  overflow="visible"/>
		</clipPath>
		<rect x="389.981" y="10.925" clip-path="url(#SVGID_16_)" fill="#FFFFFF" width="12.828" height="15.621"/>
	</g>
	<g>
		<defs>
			<path id="SVGID_17_" d="M408.437,22.248c-0.503-0.834-0.755-1.989-0.755-3.465c0-1.454,0.268-2.614,0.802-3.48
				c0.535-0.865,1.413-1.308,2.631-1.332c1.177,0.024,2.01,0.462,2.502,1.316c0.49,0.857,0.739,2.021,0.739,3.496
				s-0.249,2.631-0.739,3.465c-0.492,0.831-1.325,1.239-2.502,1.218c-0.031,0-0.063,0-0.096,0
				C409.789,23.466,408.927,23.061,408.437,22.248 M408.309,11.486c-0.845,0.375-1.567,0.894-2.164,1.556
				c-0.62,0.687-1.097,1.503-1.428,2.453c-0.332,0.953-0.497,2.016-0.497,3.192c0,2.523,0.625,4.469,1.875,5.837
				c1.252,1.368,2.924,2.041,5.02,2.021c2.182,0.02,3.844-0.653,4.987-2.021c1.143-1.368,1.716-3.313,1.716-5.837
				c0-2.329-0.573-4.206-1.716-5.629c-1.144-1.421-2.806-2.144-4.987-2.164C410.089,10.915,409.154,11.114,408.309,11.486"/>
		</defs>
		<use xlink:href="#SVGID_17_"  overflow="visible" fill="#FFFFFF"/>
		<clipPath id="SVGID_18_">
			<use xlink:href="#SVGID_17_"  overflow="visible"/>
		</clipPath>
		<rect x="404.22" y="10.895" clip-path="url(#SVGID_18_)" fill="#FFFFFF" width="13.598" height="15.671"/>
	</g>
	<g>
		<defs>
			<path id="SVGID_19_" d="M425.644,23.113c-0.429-0.235-0.762-0.556-0.994-0.961c-0.258-0.427-0.43-0.92-0.514-1.479
				c-0.088-0.554-0.128-1.153-0.128-1.794c0-0.578,0.036-1.155,0.11-1.732c0.075-0.577,0.23-1.111,0.466-1.604
				c0.235-0.469,0.566-0.854,0.993-1.153c0.429-0.3,1.007-0.451,1.733-0.451c0.642,0,1.165,0.157,1.571,0.466
				c0.406,0.312,0.715,0.711,0.93,1.203c0.235,0.492,0.391,1.031,0.465,1.619c0.074,0.589,0.111,1.17,0.111,1.748
				c0,0.577-0.037,1.138-0.111,1.684c-0.074,0.545-0.219,1.022-0.432,1.428c-0.216,0.428-0.523,0.766-0.932,1.011
				c-0.406,0.245-0.942,0.368-1.603,0.368C426.625,23.466,426.072,23.348,425.644,23.113 M424.906,11.504
				c-0.728,0.406-1.231,0.822-1.508,1.252c-0.32-0.9-0.947-1.449-1.874-1.653c-0.933-0.202-1.813-0.005-2.648,0.593v2.791
				c0.644,0,1.068,0.112,1.284,0.337c0.213,0.225,0.319,0.624,0.319,1.202v16.548h3.497v-7.502c0.234,0.318,0.666,0.635,1.299,0.945
				c0.63,0.309,1.436,0.462,2.421,0.462c1.09,0,2.035-0.191,2.837-0.575c0.803-0.385,1.471-0.909,2.006-1.57
				c0.513-0.664,0.896-1.439,1.154-2.325c0.257-0.888,0.383-1.846,0.383-2.87c0-0.986-0.105-1.969-0.319-2.952
				c-0.215-0.983-0.566-1.871-1.06-2.661c-0.49-0.769-1.143-1.399-1.954-1.893c-0.813-0.491-1.818-0.737-3.016-0.737
				C426.574,10.895,425.632,11.098,424.906,11.504"/>
		</defs>
		<use xlink:href="#SVGID_19_"  overflow="visible" fill="#FFFFFF"/>
		<clipPath id="SVGID_20_">
			<use xlink:href="#SVGID_19_"  overflow="visible"/>
		</clipPath>
		<rect x="418.875" y="10.895" clip-path="url(#SVGID_20_)" fill="#FFFFFF" width="15.2" height="21.679"/>
	</g>
	<g>
		<defs>
			<rect id="SVGID_21_" x="436.417" y="5.73" width="3.496" height="20.302"/>
		</defs>
		<use xlink:href="#SVGID_21_"  overflow="visible" fill="#FFFFFF"/>
		<clipPath id="SVGID_22_">
			<use xlink:href="#SVGID_21_"  overflow="visible"/>
		</clipPath>
		<rect x="436.417" y="5.73" clip-path="url(#SVGID_22_)" fill="#FFFFFF" width="3.496" height="20.302"/>
	</g>
	<g>
		<defs>
			<path id="SVGID_23_" d="M446.568,14.664c0.503-0.504,1.202-0.756,2.102-0.756c0.896,0,1.576,0.246,2.034,0.738
				c0.461,0.492,0.692,1.293,0.692,2.406h-5.58C445.816,15.962,446.066,15.164,446.568,14.664 M443.841,12.866
				c-1.058,1.294-1.587,3.021-1.587,5.18v1.571c0,1.027,0.166,1.968,0.499,2.822c0.33,0.855,0.806,1.582,1.426,2.181
				c0.6,0.62,1.325,1.096,2.181,1.427c0.854,0.331,1.797,0.499,2.822,0.499c0.898,0,1.8-0.098,2.711-0.29
				c0.909-0.191,1.726-0.577,2.453-1.154v-3.753c-0.833,0.813-1.711,1.353-2.63,1.619c-0.919,0.269-1.699,0.403-2.343,0.403
				c-0.557,0-1.052-0.1-1.489-0.292c-0.439-0.19-0.809-0.446-1.107-0.768c-0.322-0.3-0.563-0.637-0.722-1.009
				c-0.161-0.376-0.239-0.745-0.239-1.106h9.075c0.191-3.315-0.263-5.689-1.364-7.122c-1.101-1.432-2.71-2.149-4.827-2.149
				C446.521,10.925,444.9,11.572,443.841,12.866"/>
		</defs>
		<use xlink:href="#SVGID_23_"  overflow="visible" fill="#FFFFFF"/>
		<clipPath id="SVGID_24_">
			<use xlink:href="#SVGID_23_"  overflow="visible"/>
		</clipPath>
		<rect x="442.254" y="10.925" clip-path="url(#SVGID_24_)" fill="#FFFFFF" width="12.828" height="15.621"/>
	</g>
	<g>
		<defs>
			<path id="SVGID_25_" d="M372.107,0.685v25.255h4.343v-7.821v-1.659v-3.944V9.932V4.707h5.377c0.503,0,1.021,0.086,1.554,0.26
				c0.53,0.174,1.008,0.418,1.434,0.738c0.397,0.316,0.736,0.716,1.016,1.194c0.279,0.477,0.418,1.035,0.418,1.674
				c0,1.032-0.353,1.95-1.055,2.748c-0.705,0.795-1.813,1.193-3.327,1.193h-3.151v3.96l3.55,0.024c1.246,0,2.384-0.22,3.407-0.657
				c1.021-0.439,1.891-1.017,2.607-1.732c0.718-0.718,1.269-1.547,1.654-2.491c0.385-0.94,0.578-1.918,0.578-2.927
				c0-2.521-0.817-4.487-2.45-5.896c-1.634-1.407-3.712-2.111-6.234-2.111H372.107z"/>
		</defs>
		<use xlink:href="#SVGID_25_"  overflow="visible" fill="#FFFFFF"/>
		<clipPath id="SVGID_26_">
			<use xlink:href="#SVGID_25_"  overflow="visible"/>
		</clipPath>
		<rect x="372.107" y="0.685" clip-path="url(#SVGID_26_)" fill="#FFFFFF" width="18.404" height="25.255"/>
	</g>
</g>
</svg>
