<?xml version="1.0" encoding="utf-8"?>
<!-- Generator: Adobe Illustrator 16.0.0, SVG Export Plug-In . SVG Version: 6.00 Build 0)  -->
<!DOCTYPE svg PUBLIC "-//W3C//DTD SVG 1.1//EN" "http://www.w3.org/Graphics/SVG/1.1/DTD/svg11.dtd">
<svg version="1.1" id="레이어_1" xmlns="http://www.w3.org/2000/svg" xmlns:xlink="http://www.w3.org/1999/xlink" x="0px"
	 y="0px" width="417.198px" height="33.941px" viewBox="0 0 417.198 33.941" enable-background="new 0 0 417.198 33.941"
	 xml:space="preserve">
<g>
	<g>
		<defs>
			<path id="SVGID_1_" d="M172.185,8.957h-9.619v4.423h7.998c-1.658,6.449-4.903,11.5-9.178,14.375
				c1.105,0.662,2.876,2.433,3.65,3.464c5.198-3.835,9.25-11.315,10.946-21.304l-2.986-1.105L172.185,8.957z"/>
		</defs>
		<use xlink:href="#SVGID_1_"  overflow="visible" fill="#FFFFFF"/>
		<clipPath id="SVGID_2_">
			<use xlink:href="#SVGID_1_"  overflow="visible"/>
		</clipPath>
		<rect x="161.385" y="8.81" clip-path="url(#SVGID_2_)" fill="#FFFFFF" width="14.597" height="22.409"/>
	</g>
	<g>
		<defs>
			<path id="SVGID_3_" d="M176.792,0v5.397c0,0,1.049,5.035,4.643,12.491v-0.05c0.196,0.442,0.411,0.867,0.618,1.298
				c2.607,5.404,6.153,9.799,11.104,12.597c0.773-1.327,2.285-3.168,3.391-4.092c-4.535-2.137-7.999-5.712-10.616-10.134
				c2.985-2.323,6.672-5.787,9.621-8.919l-4.092-2.875c-1.878,2.615-4.79,5.749-7.406,8.18c-0.748-1.621-1.382-3.336-1.938-5.104
				c-0.077-0.239-0.152-0.481-0.224-0.726L181.77,7.67L179.183,0H176.792z"/>
		</defs>
		<use xlink:href="#SVGID_3_"  overflow="visible" fill="#FFFFFF"/>
		<clipPath id="SVGID_4_">
			<use xlink:href="#SVGID_3_"  overflow="visible"/>
		</clipPath>
		<rect x="176.792" clip-path="url(#SVGID_4_)" fill="#FFFFFF" width="19.756" height="31.733"/>
	</g>
	<path fill="#FFFFFF" d="M179.182,0h-2.39v5.399c0,0,1.049,5.03,4.645,12.489V17.84V6.681L179.182,0z"/>
	<polygon fill="#FFFFFF" points="28.167,7.512 28.167,25.504 25.017,25.504 25.017,17.424 22.074,17.424 22.074,14.624 
		25.017,14.624 25.017,7.512 	"/>
	<rect x="29.654" y="7.133" fill="#FFFFFF" width="3.237" height="19.011"/>
	<path fill="#FFFFFF" d="M63.683,16.129c0.975,0,1.791,0.201,2.451,0.602c0.658,0.403,1.185,0.946,1.577,1.631
		c0.394,0.686,0.686,1.463,0.874,2.336c0.067,0.41,0.127,0.821,0.179,1.23h1.104v-5.876h2.771v15.836h-2.771v-7.496h-1.052
		c-0.052,0.753-0.164,1.447-0.334,2.079c-0.24,0.908-0.581,1.686-1.026,2.335c-0.446,0.634-0.984,1.126-1.617,1.478
		c-0.633,0.35-1.352,0.524-2.155,0.524c-0.84,0-1.579-0.195-2.221-0.589c-0.642-0.393-1.177-0.925-1.604-1.591
		c-0.445-0.668-0.778-1.447-1.001-2.337c-0.223-0.889-0.334-1.83-0.334-2.823c0-0.957,0.094-1.881,0.283-2.771
		c0.188-0.891,0.488-1.668,0.899-2.336c0.41-0.685,0.945-1.228,1.604-1.631C61.967,16.33,62.758,16.129,63.683,16.129
		 M63.683,18.721c-0.479,0-0.874,0.129-1.182,0.385c-0.308,0.258-0.548,0.599-0.717,1.027c-0.19,0.445-0.313,0.954-0.374,1.525
		c-0.06,0.574-0.089,1.178-0.089,1.81c0,0.651,0.047,1.258,0.141,1.824c0.094,0.564,0.243,1.067,0.449,1.515
		c0.188,0.426,0.432,0.765,0.732,1.012c0.298,0.247,0.645,0.37,1.04,0.37c0.838,0,1.44-0.438,1.809-1.321
		c0.368-0.879,0.553-2.014,0.553-3.399c0-0.632-0.039-1.235-0.116-1.81c-0.077-0.571-0.202-1.073-0.374-1.499
		c-0.187-0.447-0.431-0.796-0.731-1.054C64.525,18.85,64.145,18.721,63.683,18.721 M74.075,15.719h2.85v16.732h-2.85V15.719z"/>
	<path fill="#FFFFFF" d="M151.306,24.085h-15.375v-2.161h15.375V24.085z M143.653,21.248c-0.81,0-1.571-0.094-2.283-0.28
		c-0.714-0.189-1.333-0.462-1.858-0.823c-0.54-0.345-0.96-0.776-1.262-1.294c-0.299-0.518-0.45-1.106-0.45-1.765
		c-0.014-0.751,0.146-1.394,0.485-1.927c0.337-0.532,0.784-0.972,1.339-1.316c0.554-0.33,1.178-0.579,1.868-0.743
		c0.69-0.163,1.396-0.246,2.117-0.246c0.629,0,1.287,0.066,1.969,0.201c0.682,0.135,1.309,0.361,1.878,0.675
		c0.556,0.314,1.019,0.746,1.386,1.295c0.368,0.549,0.559,1.235,0.573,2.062c-0.014,0.629-0.164,1.202-0.45,1.72
		c-0.285,0.517-0.682,0.957-1.192,1.317c-0.511,0.358-1.118,0.639-1.823,0.833S144.479,21.248,143.653,21.248 M149.236,30.702v2.14
		c-0.406,0.148-0.871,0.281-1.396,0.393c-0.524,0.113-1.073,0.198-1.643,0.258c-0.585,0.076-1.177,0.117-1.777,0.125
		c-0.602,0.007-1.187-0.025-1.756-0.102c-0.571-0.075-1.108-0.191-1.608-0.348c-0.504-0.158-0.943-0.366-1.318-0.621
		c-0.359-0.269-0.649-0.594-0.866-0.967c-0.218-0.374-0.326-0.825-0.326-1.353v-2.046h7.518v-0.899h-7.496v-2.163h10.063v5.178
		h-7.474v0.136c0,0.314,0.276,0.562,0.833,0.741c0.555,0.183,1.245,0.295,2.07,0.338c0.825,0.029,1.707-0.018,2.646-0.146
		C147.642,31.238,148.484,31.018,149.236,30.702 M146.962,17.086c-0.016-0.723-0.349-1.236-1.002-1.545
		c-0.651-0.307-1.414-0.461-2.284-0.461c-0.436,0-0.856,0.035-1.261,0.103s-0.764,0.177-1.08,0.326
		c-0.331,0.165-0.594,0.374-0.789,0.629c-0.194,0.257-0.284,0.57-0.27,0.948c-0.015,0.372,0.072,0.684,0.26,0.933
		c0.187,0.248,0.438,0.444,0.753,0.598c0.315,0.148,0.68,0.254,1.092,0.314c0.411,0.059,0.843,0.089,1.293,0.089
		c0.42,0,0.826-0.03,1.216-0.089c0.391-0.061,0.736-0.166,1.036-0.314c0.315-0.153,0.563-0.35,0.743-0.598
		C146.851,17.77,146.947,17.458,146.962,17.086"/>
	<path fill="#FFFFFF" d="M213.617,17.879v2.049c-0.459,0.287-0.984,0.542-1.572,0.767c-0.591,0.222-1.215,0.404-1.877,0.549
		c-0.431,0.087-0.861,0.156-1.294,0.215v1.035h6.081v2.068h-14.721v-2.068h6.12v-0.992c-0.088,0-0.166-0.007-0.237-0.021
		c-0.661-0.085-1.281-0.232-1.864-0.442c-0.582-0.207-1.089-0.498-1.519-0.871c-0.432-0.374-0.774-0.839-1.023-1.393
		c-0.252-0.553-0.378-1.203-0.378-1.95v-2.738h2.435v2.845c0,0.734,0.291,1.287,0.873,1.661c0.582,0.375,1.338,0.59,2.272,0.647
		c0.936,0.057,1.989-0.033,3.159-0.271C211.244,18.729,212.425,18.367,213.617,17.879 M213.122,27.752v2.07h-1.618
		c0.015,0.087,0.037,0.168,0.066,0.248c0.028,0.079,0.058,0.161,0.086,0.247c0.014,0.087,0.031,0.17,0.054,0.249
		c0.022,0.081,0.032,0.16,0.032,0.247c0,0.777-0.319,1.447-0.959,2.017c-0.639,0.567-1.656,0.852-3.05,0.852
		c-0.717,0-1.33-0.083-1.831-0.249c-0.505-0.165-0.919-0.384-1.25-0.658c-0.316-0.271-0.549-0.579-0.701-0.926
		c-0.15-0.343-0.226-0.688-0.226-1.035c0-0.171,0.021-0.344,0.064-0.517c0.045-0.173,0.116-0.33,0.214-0.475h-1.636v-2.07H213.122z
		 M203.639,26.309l1.164-1.683c0.315,0.188,0.708,0.32,1.173,0.4c0.468,0.079,1.024,0.11,1.67,0.097h3.708v2.068h-3.771
		c-0.705,0-1.412-0.049-2.122-0.15C204.748,26.94,204.142,26.696,203.639,26.309 M207.732,31.741c0.56,0,0.972-0.084,1.24-0.249
		c0.264-0.165,0.397-0.391,0.397-0.679c0-0.303-0.165-0.541-0.496-0.722c-0.329-0.179-0.71-0.27-1.141-0.27
		c-0.46,0-0.847,0.081-1.163,0.248c-0.318,0.165-0.476,0.415-0.476,0.743c0,0.275,0.141,0.495,0.422,0.668
		C206.795,31.655,207.2,31.741,207.732,31.741"/>
	<path fill="#FFFFFF" d="M226.984,25.577c-0.358,0.285-0.77,0.533-1.229,0.742c-0.459,0.21-0.947,0.361-1.465,0.464
		c-0.518,0.1-1.046,0.148-1.584,0.148c-0.54,0-1.061-0.064-1.564-0.192c-0.516-0.129-1.002-0.323-1.454-0.582
		c-0.453-0.259-0.845-0.589-1.176-0.991c-0.345-0.402-0.613-0.887-0.809-1.456c-0.193-0.565-0.291-1.217-0.291-1.95v-6.704h8.431
		v2.134h-5.994v4.765c0,0.689,0.206,1.257,0.616,1.704c0.408,0.444,0.95,0.739,1.625,0.883c0.661,0.158,1.42,0.158,2.275,0
		c0.854-0.159,1.729-0.494,2.619-1.013V25.577z M230.973,19.475h2.673v2.092h-2.673v6.574l-2.415-0.022V14.064h2.415V19.475z"/>
	<path fill="#FFFFFF" d="M235.801,29.063l0.18-5.136h1.643c0.308,0,0.582,0.126,0.821,0.373c0.24,0.249,0.341,0.586,0.308,1.013
		l-0.616,4.724h-1.462c-0.206,0-0.401-0.104-0.591-0.309C235.895,29.523,235.801,29.3,235.801,29.063"/>
	<path fill="#FFFFFF" d="M255.626,14.179l2.145,11.672c0.044,0.229,0.093,0.379,0.139,0.449c0.047,0.069,0.146,0.104,0.3,0.104
		c0.122,0,0.208-0.039,0.252-0.116c0.049-0.077,0.093-0.215,0.14-0.417l2.006-11.692h2.699l-2.262,12.64
		c-0.061,0.261-0.168,0.53-0.322,0.806c-0.152,0.278-0.345,0.525-0.576,0.739c-0.247,0.215-0.53,0.392-0.853,0.532
		c-0.322,0.139-0.678,0.205-1.062,0.205c-0.738,0-1.345-0.205-1.822-0.623c-0.477-0.414-0.783-0.968-0.924-1.659l-1.176-6.412
		l-1.083,6.412c-0.137,0.691-0.45,1.245-0.934,1.659c-0.483,0.418-1.088,0.623-1.813,0.623c-0.399,0-0.76-0.066-1.082-0.205
		c-0.323-0.141-0.608-0.317-0.854-0.532c-0.23-0.214-0.424-0.461-0.578-0.739c-0.152-0.275-0.253-0.545-0.299-0.806l-2.26-12.64
		h2.697l2.007,11.692c0.031,0.202,0.069,0.34,0.116,0.417c0.046,0.077,0.139,0.116,0.275,0.116c0.14,0,0.235-0.035,0.289-0.104
		c0.054-0.07,0.104-0.22,0.15-0.449l2.146-11.672H255.626z"/>
	<path fill="#FFFFFF" d="M269.069,29.172c-1.508,0.016-2.711-0.472-3.611-1.453c-0.899-0.985-1.349-2.385-1.349-4.198
		c0-0.846,0.118-1.612,0.357-2.294c0.238-0.686,0.58-1.274,1.027-1.766c0.429-0.477,0.947-0.849,1.557-1.118
		c0.606-0.271,1.279-0.41,2.019-0.427c1.567,0.017,2.762,0.534,3.585,1.556c0.822,1.024,1.234,2.374,1.234,4.049
		c0,1.813-0.412,3.213-1.234,4.198C271.831,28.7,270.636,29.188,269.069,29.172 M269.069,20.13
		c-0.878,0.015-1.508,0.334-1.891,0.957c-0.385,0.623-0.578,1.456-0.578,2.502c0,1.061,0.181,1.892,0.543,2.492
		c0.359,0.6,1.002,0.891,1.926,0.875c0.844,0.016,1.443-0.275,1.798-0.875c0.354-0.601,0.531-1.432,0.531-2.492
		c0-1.06-0.177-1.898-0.531-2.514C270.512,20.459,269.913,20.145,269.069,20.13"/>
	<path fill="#FFFFFF" d="M278.266,19.276c0.155-0.229,0.425-0.453,0.808-0.669c0.384-0.216,0.862-0.321,1.432-0.321h1.959v2.259
		h-1.13c-0.799,0-1.45,0.21-1.949,0.634c-0.498,0.424-0.749,1.02-0.749,1.788v5.81h-2.491v-7.309c0-0.4-0.097-0.678-0.287-0.83
		c-0.193-0.155-0.521-0.231-0.981-0.231v-2.075c0.415-0.093,0.815-0.12,1.2-0.081c0.384,0.038,0.73,0.112,1.037,0.218
		c0.321,0.093,0.583,0.216,0.784,0.371C278.097,18.991,278.219,19.138,278.266,19.276"/>
	<rect x="283.639" y="14.201" fill="#FFFFFF" width="2.515" height="14.601"/>
	<path fill="#FFFFFF" d="M292.498,17.938c0.691,0,1.261,0.116,1.705,0.349c0.447,0.229,0.762,0.452,0.947,0.668v-4.752h2.537V25.48
		c0,0.417,0.076,0.71,0.229,0.886c0.152,0.18,0.463,0.268,0.924,0.268v2.006c-0.308,0.231-0.632,0.378-0.971,0.438
		c-0.337,0.063-0.652,0.053-0.944-0.022c-0.308-0.077-0.581-0.223-0.818-0.438c-0.239-0.215-0.413-0.484-0.52-0.808
		c-0.216,0.323-0.58,0.628-1.096,0.911c-0.515,0.286-1.188,0.427-2.018,0.427c-0.876,0-1.607-0.173-2.19-0.519
		c-0.586-0.345-1.053-0.796-1.408-1.35c-0.354-0.553-0.604-1.184-0.748-1.891c-0.147-0.708-0.221-1.422-0.221-2.145
		s0.09-1.407,0.266-2.054c0.178-0.646,0.449-1.206,0.819-1.683c0.384-0.479,0.864-0.857,1.442-1.142
		C291.01,18.081,291.698,17.938,292.498,17.938 M292.774,26.956c0.508,0,0.915-0.103,1.223-0.311
		c0.307-0.207,0.544-0.488,0.714-0.842c0.169-0.34,0.285-0.719,0.347-1.143c0.063-0.422,0.093-0.84,0.093-1.257
		c0-0.445-0.035-0.869-0.104-1.268c-0.07-0.399-0.197-0.754-0.381-1.063c-0.185-0.291-0.431-0.524-0.738-0.703
		c-0.308-0.176-0.699-0.265-1.176-0.265c-0.493,0-0.886,0.093-1.177,0.276c-0.293,0.186-0.508,0.424-0.647,0.716
		c-0.153,0.308-0.253,0.654-0.299,1.038c-0.046,0.385-0.068,0.783-0.068,1.2c0,0.413,0.022,0.837,0.068,1.267
		c0.046,0.431,0.155,0.823,0.323,1.178c0.154,0.353,0.376,0.637,0.668,0.853C291.913,26.849,292.298,26.956,292.774,26.956"/>
	<polygon fill="#FFFFFF" points="316.92,16.347 313.047,16.347 313.047,28.802 310.533,28.802 310.533,16.347 306.634,16.347 
		306.634,14.179 316.92,14.179 	"/>
	<path fill="#FFFFFF" d="M320.704,29.172c-1.508,0.016-2.709-0.472-3.608-1.453c-0.899-0.985-1.349-2.385-1.349-4.198
		c0-0.846,0.119-1.612,0.356-2.294c0.239-0.686,0.582-1.274,1.025-1.766c0.432-0.477,0.95-0.849,1.559-1.118
		c0.606-0.271,1.279-0.41,2.017-0.427c1.568,0.017,2.765,0.534,3.588,1.556c0.822,1.024,1.233,2.374,1.233,4.049
		c0,1.813-0.411,3.213-1.233,4.198C323.468,28.7,322.272,29.188,320.704,29.172 M320.704,20.13
		c-0.876,0.015-1.508,0.334-1.892,0.957s-0.576,1.456-0.576,2.502c0,1.061,0.181,1.892,0.544,2.492
		c0.36,0.6,1.001,0.891,1.924,0.875c0.847,0.016,1.446-0.275,1.801-0.875c0.353-0.601,0.53-1.432,0.53-2.492
		c0-1.06-0.178-1.898-0.53-2.514C322.15,20.459,321.55,20.145,320.704,20.13"/>
	<path fill="#FFFFFF" d="M332.628,29.125c-0.706,0-1.288-0.112-1.741-0.335c-0.454-0.222-0.766-0.45-0.935-0.679v5.396h-2.516
		V21.605c0-0.415-0.075-0.704-0.229-0.864c-0.154-0.161-0.46-0.242-0.923-0.242v-2.007c0.6-0.43,1.234-0.573,1.903-0.427
		c0.669,0.146,1.119,0.542,1.349,1.188c0.201-0.306,0.561-0.607,1.084-0.898c0.522-0.292,1.198-0.438,2.031-0.438
		c0.858,0,1.582,0.176,2.166,0.531c0.585,0.354,1.055,0.806,1.407,1.359c0.354,0.569,0.608,1.207,0.763,1.913
		c0.151,0.708,0.229,1.417,0.229,2.123c0,0.739-0.091,1.428-0.277,2.064c-0.185,0.639-0.46,1.196-0.83,1.674
		c-0.385,0.476-0.864,0.852-1.439,1.129C334.093,28.986,333.412,29.125,332.628,29.125 M332.353,20.106
		c-0.524,0-0.939,0.108-1.246,0.322c-0.309,0.217-0.546,0.494-0.716,0.831c-0.169,0.354-0.281,0.738-0.335,1.153
		c-0.053,0.415-0.081,0.831-0.081,1.245c0,0.462,0.032,0.892,0.093,1.292c0.063,0.4,0.186,0.753,0.37,1.061
		c0.17,0.292,0.407,0.523,0.716,0.691c0.306,0.169,0.706,0.254,1.199,0.254c0.475,0,0.861-0.087,1.151-0.265
		c0.292-0.176,0.515-0.419,0.67-0.725c0.153-0.294,0.257-0.637,0.311-1.028c0.056-0.392,0.08-0.796,0.08-1.211
		s-0.024-0.832-0.08-1.257c-0.054-0.423-0.165-0.811-0.334-1.164c-0.153-0.354-0.377-0.642-0.669-0.865
		C333.188,20.218,332.813,20.106,332.353,20.106"/>
	<path fill="#FFFFFF" d="M21.679,22.527c-0.261-0.796-0.618-1.535-1.064-2.215c-0.467-0.682-1.002-1.274-1.603-1.778
		c-0.43-0.353-0.886-0.651-1.371-0.905h-0.001c-0.32-0.193-0.675-0.39-0.927-0.483c-0.661,0.755-1.313,1.401-2.146,2.048
		c0.205,0.145,0.518,0.356,0.985,0.647c0.009,0.006,0.028,0.018,0.039,0.024c0.121,0.075,0.246,0.153,0.388,0.238
		c0.414,0.263,0.975,0.628,1.106,0.732c0.388,0.313,0.719,0.662,0.991,1.051c0.272,0.388,0.49,0.812,0.657,1.27
		c0.164,0.456,0.257,0.908,0.277,1.354l0.028,1.168h3.033v-0.731C22.074,24.131,21.942,23.325,21.679,22.527"/>
	<path fill="#FFFFFF" d="M45.05,16.842c0.369,0.447,0.661,0.919,0.876,1.415c0.214,0.495,0.329,0.966,0.349,1.414v0.902h3.033
		v-0.729c0-0.894-0.165-1.763-0.496-2.608c-0.33-0.847-0.768-1.608-1.313-2.29c-0.564-0.681-1.214-1.253-1.953-1.719
		c-0.125-0.076-0.256-0.134-0.383-0.202c-0.246,0.856-0.612,2.011-1.045,2.982C44.462,16.257,44.781,16.53,45.05,16.842"/>
	<path fill="#FFFFFF" d="M44.468,8.531V7.45h-3.325v1.022c0,2.741-0.457,4.847-1.371,6.313c-0.914,1.469-2.538,2.405-4.87,2.813
		v2.916c1.75-0.175,3.232-0.616,4.447-1.326c1.216-0.71,2.202-1.6,2.959-2.668c0.209-0.29,0.402-0.604,0.584-0.934
		c0.535-1.178,1.058-2.914,1.333-4.047C44.387,10.569,44.468,9.566,44.468,8.531"/>
	<path fill="#FFFFFF" d="M52.311,23.84c-0.505-0.524-1.107-0.938-1.808-1.237c-0.699-0.302-1.478-0.453-2.333-0.453
		c-0.874,0-1.662,0.151-2.36,0.453c-0.701,0.3-1.294,0.713-1.779,1.237c-0.486,0.526-0.855,1.142-1.109,1.852
		c-0.252,0.71-0.378,1.473-0.378,2.29c0,1.672,0.5,3.056,1.501,4.153c1.001,1.099,2.375,1.649,4.125,1.649
		c0.855,0,1.635-0.145,2.333-0.438c0.7-0.292,1.303-0.689,1.808-1.195c0.486-0.523,0.866-1.142,1.138-1.852
		c0.272-0.709,0.408-1.482,0.408-2.317c0-0.817-0.135-1.58-0.408-2.29C53.177,24.981,52.797,24.366,52.311,23.84 M49.877,30.125
		c-0.418,0.555-1.007,0.83-1.765,0.83c-0.815,0-1.398-0.275-1.75-0.83c-0.35-0.555-0.524-1.271-0.524-2.144
		c0-0.874,0.19-1.589,0.568-2.145c0.379-0.553,0.967-0.829,1.764-0.829c0.855,0,1.459,0.291,1.809,0.872
		c0.349,0.586,0.524,1.284,0.524,2.102C50.503,28.854,50.294,29.57,49.877,30.125"/>
	<polygon fill="#FFFFFF" points="54.061,12.877 54.061,7.13 50.795,7.13 50.795,21.652 54.061,21.652 54.061,15.704 57.678,15.704 
		57.678,12.877 	"/>
	<path fill="#FFFFFF" d="M93.06,7.823c0.762,0.384,1.547,0.659,2.357,0.826c0.824,0.156,1.635,0.196,2.431,0.127
		c0.559-0.055,1.102-0.169,1.634-0.334l-0.09-3.091c-0.237,0.069-1.566,0.36-1.818,0.387c-0.5,0.058-0.99,0.041-1.464-0.041
		c-0.475-0.083-0.936-0.231-1.383-0.442c-0.447-0.209-0.837-0.466-1.172-0.773l-0.859-0.816l-2.179,2.179l0.524,0.523
		C91.626,6.955,92.299,7.44,93.06,7.823"/>
	<path fill="#FFFFFF" d="M88.708,12.938h1.629c-0.198,0.237-0.366,0.493-0.505,0.77c-0.276,0.553-0.414,1.167-0.414,1.837
		c0,1.718,0.504,3.097,1.51,4.133c1.009,1.037,2.361,1.555,4.06,1.555c1.658,0,3.006-0.518,4.043-1.555
		c1.037-1.036,1.555-2.415,1.555-4.133c0-0.69-0.147-1.313-0.445-1.864c-0.139-0.258-0.305-0.505-0.503-0.742h1.541V9.975H88.708
		V12.938z M93.269,13.707c0.375-0.513,0.948-0.77,1.719-0.77c0.81,0,1.394,0.277,1.748,0.83c0.334,0.554,0.503,1.154,0.503,1.808
		c0,0.888-0.178,1.594-0.533,2.116c-0.355,0.525-0.958,0.786-1.807,0.786c-0.73,0-1.279-0.261-1.645-0.786
		c-0.365-0.522-0.548-1.229-0.548-2.116C92.706,14.862,92.894,14.24,93.269,13.707"/>
	<path fill="#FFFFFF" d="M107.164,32.282c0.493-0.533,0.878-1.161,1.154-1.88c0.276-0.724,0.416-1.507,0.416-2.357
		c0-0.83-0.139-1.604-0.416-2.325c-0.275-0.721-0.661-1.347-1.154-1.881c-0.515-0.532-1.126-0.951-1.837-1.258
		c-0.713-0.307-1.502-0.46-2.371-0.46c-0.889,0-1.689,0.153-2.401,0.46c-0.71,0.307-1.313,0.726-1.807,1.258
		c-0.493,0.534-0.869,1.16-1.125,1.881c-0.256,0.722-0.385,1.495-0.385,2.325c0,1.699,0.507,3.105,1.526,4.223
		c1.017,1.115,2.415,1.674,4.192,1.674c0.868,0,1.658-0.148,2.371-0.443C106.038,33.201,106.649,32.795,107.164,32.282
		 M102.896,31.067c-0.828,0-1.42-0.28-1.776-0.845c-0.355-0.563-0.532-1.287-0.532-2.178c0-0.889,0.191-1.609,0.576-2.162
		c0.386-0.553,0.982-0.829,1.793-0.829c0.868,0,1.482,0.292,1.836,0.873c0.355,0.584,0.534,1.288,0.534,2.118
		c0,0.891-0.214,1.614-0.637,2.178C104.264,30.787,103.668,31.067,102.896,31.067"/>
	<polygon fill="#FFFFFF" points="106.956,12.433 105.148,12.433 105.148,7.102 101.95,7.102 101.95,21.352 105.148,21.352 
		105.148,15.276 106.956,15.276 106.956,21.47 110.243,21.47 110.243,6.716 106.956,6.716 	"/>
	<polygon fill="#FFFFFF" points="117.091,27.425 126.482,27.425 126.482,33.29 129.77,33.29 129.77,24.521 117.091,24.521 	"/>
	<path fill="#FFFFFF" d="M125.088,20.227v-1.363h0.149c1.995,0,3.5-0.572,4.517-1.719c1.018-1.145,1.526-2.664,1.526-4.563V6.716
		h-3.259v1.861v1.34v2.933v0.593v0.082h-0.009c-0.009,0.251-0.056,0.509-0.154,0.776c-0.107,0.296-0.282,0.572-0.518,0.829
		c-0.238,0.238-0.558,0.439-0.964,0.608c-0.403,0.168-0.902,0.251-1.496,0.251h-3.288c-1.145,0.021-1.936-0.222-2.369-0.725
		c-0.435-0.504-0.653-0.991-0.653-1.468V12.85h7.329V9.917h-7.329V6.716h-3.259v5.866c0,1.956,0.494,3.492,1.482,4.607
		c0.985,1.115,2.506,1.674,4.562,1.674h0.265v1.363h-8.413v2.844h20.233v-2.844H125.088z"/>
	<path fill="#FFFFFF" d="M128.021,13.524v-0.082c0,0.026-0.006,0.055-0.008,0.082H128.021z"/>
	<g>
		<defs>
			<path id="SVGID_5_" d="M176.792,28.712c0,0.626-0.258,0.884-0.995,0.884c-0.548,0-1.881,0.018-3.473-0.009v4.22
				c1.222,0.082,5.649,0.32,7.011-0.377c1.51-0.737,2.1-2.064,2.1-4.718V17.889c-3.594-7.456-4.643-12.491-4.643-12.491V28.712z"/>
		</defs>
		<use xlink:href="#SVGID_5_"  overflow="visible" fill="#FFFFFF"/>
		<clipPath id="SVGID_6_">
			<use xlink:href="#SVGID_5_"  overflow="visible"/>
		</clipPath>
		<rect x="172.325" y="5.397" clip-path="url(#SVGID_6_)" fill="#FFFFFF" width="9.111" height="28.729"/>
	</g>
	<path fill="#FFFFFF" d="M20.92,7.838h-3.276c-1.742,3.325-4.221,6.328-7.41,8.738C7.102,18.942,3.606,20.49,0,21.271v3.052
		c4.191-0.812,8.265-2.545,11.904-5.264c0.044-0.032,0.089-0.063,0.133-0.097c3.978-3.004,6.969-6.836,8.919-11.077L20.92,7.838z"/>
	<polygon fill="#FFFFFF" points="346.583,14.196 349.623,14.196 349.623,20.522 349.668,20.522 354.82,14.196 358.021,14.196 
		352.289,20.756 358.625,28.752 354.911,28.752 349.668,21.707 349.623,21.707 349.623,28.752 346.583,28.752 	"/>
	<path fill="#FFFFFF" d="M376.218,18.78c-0.024,0.113-1.655,7.377-1.655,7.377s-2.471-7.277-2.504-7.377h-1.364
		c-0.031,0.102-2.279,7.505-2.279,7.505s-1.853-7.396-1.882-7.505h-2.439c0.052,0.185,2.759,9.864,2.788,9.972h2.299
		c0.034-0.1,2.112-6.374,2.112-6.374s2.309,6.278,2.345,6.374h2.322c0.027-0.11,2.398-9.791,2.442-9.972H376.218z"/>
	<path fill="#FFFFFF" d="M386.218,27.192v1.56h2.682v-6.773c0-1.782-0.5-3.432-4.135-3.432c-2.884,0-4.422,1.072-4.461,3.104h2.869
		c0.004-0.045,0.007-0.088,0.007-0.088c0.039-0.703,0.124-2.166,1.56-2.166c1.039,0,1.479,0.613,1.479,2.052v1.772l-0.068,0.002
		c-1.546,0.063-6.243,0.248-6.243,3.307c0,1.401,1.303,2.455,3.036,2.455C385.181,28.984,386.218,27.192,386.218,27.192
		 M384.041,27.668c-0.841,0-1.362-0.576-1.362-1.5c0-1.188,1.164-1.891,3.46-2.093l0.08-0.008v0.825
		C386.218,26.271,385.47,27.668,384.041,27.668"/>
	<path fill="#FFFFFF" d="M396.13,28.986c0.628,0,1.248-0.06,1.903-0.12l0.011-0.003v-1.324c-0.396,0.107-0.839,0.129-1.188,0.129
		c-1.138,0-1.525-0.438-1.525-1.734v-6.07h3.135V18.78h-3.135v-3.882c-0.2,0.107-2.609,1.431-2.68,1.469v2.413h-2.082v1.083h2.082
		v6.391C392.652,28.529,393.985,28.986,396.13,28.986"/>
	<path fill="#FFFFFF" d="M404.784,28.984c1.594,0,2.279-0.196,3.528-0.68v-0.909c-0.594,0.202-1.345,0.419-2.102,0.419
		c-3.271,0-4.331-3.472-4.331-5.155v-0.073h6.643v-0.308c0-2.405-1.576-3.731-4.438-3.731c-3.241,0-4.886,1.598-4.886,4.751
		C399.198,28.431,403.106,28.984,404.784,28.984 M401.882,21.585c0.097-0.657,0.498-2.188,2.107-2.188
		c1.89,0,1.945,1.977,1.945,2.201v0.072h-4.066L401.882,21.585z"/>
	<path fill="#FFFFFF" d="M417.198,21.056v-2.498c-1.958,0.149-2.923,1.404-3.713,2.753l-0.098,0.155V18.78h-2.681v9.972h2.681
		v-4.455C413.387,21.986,414.458,21.074,417.198,21.056"/>
	<rect x="357.783" y="20.651" fill="#FFFFFF" width="4.821" height="1.947"/>
</g>
</svg>
