<?xml version="1.0" encoding="utf-8"?>
<!-- Generator: Adobe Illustrator 16.0.0, SVG Export Plug-In . SVG Version: 6.00 Build 0)  -->
<!DOCTYPE svg PUBLIC "-//W3C//DTD SVG 1.1//EN" "http://www.w3.org/Graphics/SVG/1.1/DTD/svg11.dtd">
<svg version="1.1" id="레이어_1" xmlns="http://www.w3.org/2000/svg" xmlns:xlink="http://www.w3.org/1999/xlink" x="0px"
	 y="0px" width="194.1px" height="46.174px" viewBox="0 0 194.1 46.174" enable-background="new 0 0 194.1 46.174"
	 xml:space="preserve">
<g>
	<g>
		<defs>
			<path id="SVGID_1_" d="M139.975,7.28h-7.82v3.596h6.503c-1.349,5.244-3.985,9.348-7.461,11.687
				c0.898,0.539,2.337,1.977,2.966,2.816c4.225-3.117,7.521-9.198,8.898-17.319l-2.427-0.898L139.975,7.28z"/>
		</defs>
		<use xlink:href="#SVGID_1_"  overflow="visible" fill="#FFFFFF"/>
		<clipPath id="SVGID_2_">
			<use xlink:href="#SVGID_1_"  overflow="visible"/>
		</clipPath>
		<rect x="131.196" y="7.161" clip-path="url(#SVGID_2_)" fill="#FFFFFF" width="11.864" height="18.218"/>
	</g>
	<g>
		<defs>
			<path id="SVGID_3_" d="M143.72,0v4.388c0,0,0.854,4.091,3.775,10.154v-0.04c0.159,0.36,0.333,0.705,0.501,1.054
				c2.119,4.395,5.003,7.966,9.027,10.241c0.628-1.078,1.857-2.576,2.756-3.325c-3.686-1.738-6.502-4.644-8.629-8.239
				c2.427-1.888,5.423-4.704,7.821-7.251l-3.326-2.337c-1.529,2.127-3.896,4.673-6.023,6.651c-0.606-1.319-1.123-2.715-1.575-4.149
				c-0.061-0.197-0.123-0.394-0.182-0.592l-0.1-0.32L145.663,0H143.72z"/>
		</defs>
		<use xlink:href="#SVGID_3_"  overflow="visible" fill="#FFFFFF"/>
		<clipPath id="SVGID_4_">
			<use xlink:href="#SVGID_3_"  overflow="visible"/>
		</clipPath>
		<rect x="143.72" clip-path="url(#SVGID_4_)" fill="#FFFFFF" width="16.06" height="25.797"/>
	</g>
	<path fill="#FFFFFF" d="M145.663,0h-1.943v4.388c0,0,0.854,4.092,3.775,10.154v-0.04V5.431L145.663,0z"/>
	<polygon fill="#FFFFFF" points="22.897,6.105 22.897,20.731 20.337,20.731 20.337,14.164 17.943,14.164 17.943,11.889 
		20.337,11.889 20.337,6.105 	"/>
	<rect x="24.106" y="5.798" fill="#FFFFFF" width="2.632" height="15.455"/>
	<path fill="#FFFFFF" d="M51.77,13.111c0.792,0,1.457,0.164,1.991,0.49c0.537,0.326,0.964,0.768,1.283,1.324
		c0.32,0.557,0.557,1.189,0.711,1.898c0.055,0.335,0.104,0.669,0.146,1.002h0.897v-4.777h2.253v12.873h-2.253v-6.093h-0.856
		c-0.041,0.612-0.132,1.175-0.271,1.69c-0.195,0.737-0.474,1.37-0.835,1.898c-0.361,0.516-0.8,0.915-1.314,1.199
		c-0.515,0.285-1.099,0.428-1.752,0.428c-0.683,0-1.284-0.159-1.805-0.479c-0.522-0.319-0.957-0.752-1.305-1.293
		c-0.362-0.544-0.633-1.176-0.813-1.899c-0.182-0.723-0.271-1.489-0.271-2.296c0-0.778,0.076-1.529,0.229-2.253
		c0.153-0.723,0.396-1.355,0.73-1.898c0.334-0.557,0.769-0.998,1.304-1.324S51.018,13.111,51.77,13.111 M51.77,15.218
		c-0.39,0-0.71,0.104-0.96,0.313s-0.445,0.487-0.584,0.835c-0.154,0.361-0.255,0.775-0.304,1.24
		c-0.049,0.467-0.072,0.957-0.072,1.471c0,0.53,0.038,1.023,0.115,1.482c0.075,0.459,0.198,0.869,0.363,1.231
		c0.155,0.347,0.353,0.622,0.596,0.823c0.243,0.202,0.524,0.303,0.846,0.303c0.681,0,1.171-0.358,1.47-1.075
		c0.3-0.715,0.449-1.637,0.449-2.765c0-0.514-0.031-1.004-0.094-1.471c-0.063-0.465-0.164-0.873-0.303-1.22
		c-0.153-0.362-0.352-0.646-0.595-0.855S52.145,15.218,51.77,15.218 M60.219,12.777h2.316v13.604h-2.316V12.777z"/>
	<path fill="#FFFFFF" d="M123.002,19.578h-12.498v-1.757h12.498V19.578z M116.78,17.273c-0.658,0-1.278-0.076-1.857-0.229
		c-0.579-0.152-1.083-0.375-1.51-0.667c-0.438-0.28-0.78-0.632-1.024-1.054c-0.244-0.42-0.365-0.898-0.365-1.436
		c-0.013-0.609,0.118-1.132,0.392-1.564c0.276-0.433,0.64-0.789,1.09-1.07c0.451-0.269,0.958-0.47,1.519-0.604
		c0.562-0.134,1.135-0.201,1.721-0.201c0.513,0,1.046,0.055,1.601,0.164c0.556,0.11,1.064,0.293,1.527,0.549
		c0.451,0.256,0.827,0.607,1.126,1.052c0.299,0.446,0.454,1.004,0.467,1.675c-0.013,0.513-0.134,0.979-0.365,1.399
		c-0.232,0.421-0.556,0.778-0.971,1.071s-0.909,0.518-1.481,0.677C118.073,17.193,117.451,17.273,116.78,17.273 M121.318,24.959
		v1.737c-0.33,0.122-0.708,0.229-1.134,0.32c-0.428,0.092-0.873,0.161-1.336,0.21c-0.477,0.062-0.958,0.095-1.446,0.102
		s-0.964-0.021-1.427-0.082c-0.464-0.062-0.9-0.156-1.308-0.284c-0.409-0.128-0.767-0.296-1.071-0.503
		c-0.293-0.22-0.528-0.482-0.704-0.787c-0.177-0.305-0.266-0.671-0.266-1.099v-1.664h6.111v-0.732h-6.094v-1.756h8.18v4.208h-6.075
		v0.11c0,0.256,0.227,0.457,0.677,0.604c0.452,0.146,1.013,0.238,1.684,0.274c0.671,0.024,1.388-0.015,2.15-0.118
		C120.022,25.395,120.708,25.215,121.318,24.959 M119.471,13.888c-0.013-0.585-0.284-1.003-0.815-1.254
		c-0.53-0.25-1.149-0.374-1.856-0.374c-0.354,0-0.695,0.026-1.025,0.082c-0.329,0.055-0.621,0.144-0.878,0.265
		c-0.269,0.135-0.481,0.306-0.641,0.512c-0.158,0.208-0.232,0.465-0.219,0.77c-0.014,0.305,0.057,0.559,0.211,0.759
		c0.151,0.202,0.355,0.363,0.612,0.485c0.256,0.122,0.552,0.208,0.887,0.257c0.335,0.048,0.687,0.073,1.053,0.073
		c0.342,0,0.67-0.025,0.987-0.073c0.317-0.049,0.599-0.135,0.842-0.257c0.257-0.122,0.458-0.283,0.604-0.485
		C119.379,14.446,119.458,14.192,119.471,13.888"/>
	<path fill="#FFFFFF" d="M173.661,14.534v1.665c-0.374,0.234-0.801,0.441-1.279,0.622c-0.48,0.181-0.987,0.33-1.524,0.447
		c-0.351,0.07-0.701,0.129-1.052,0.176v0.841h4.941v1.682h-11.969v-1.682h4.977v-0.807c-0.069,0-0.134-0.006-0.192-0.018
		c-0.537-0.069-1.042-0.19-1.516-0.358c-0.474-0.17-0.885-0.406-1.236-0.71c-0.35-0.305-0.628-0.681-0.831-1.131
		c-0.205-0.449-0.309-0.979-0.309-1.586v-2.227h1.981v2.315c0,0.595,0.235,1.045,0.709,1.349c0.474,0.303,1.09,0.479,1.849,0.525
		c0.76,0.047,1.616-0.026,2.568-0.219C171.73,15.227,172.69,14.932,173.661,14.534 M173.259,22.562v1.682h-1.315
		c0.012,0.071,0.029,0.138,0.053,0.202s0.047,0.131,0.07,0.2c0.011,0.07,0.026,0.139,0.043,0.203
		c0.018,0.063,0.027,0.13,0.027,0.201c0,0.631-0.261,1.177-0.78,1.639c-0.52,0.461-1.347,0.692-2.479,0.692
		c-0.585,0-1.081-0.068-1.49-0.202c-0.409-0.136-0.748-0.313-1.016-0.535c-0.257-0.222-0.447-0.473-0.57-0.753
		c-0.122-0.28-0.184-0.561-0.184-0.841c0-0.141,0.018-0.281,0.053-0.42c0.034-0.141,0.093-0.27,0.175-0.387h-1.332v-1.682H173.259z
		 M165.548,21.387l0.945-1.367c0.258,0.151,0.575,0.26,0.955,0.324s0.833,0.091,1.358,0.079h3.015v1.682h-3.067
		c-0.572,0-1.147-0.04-1.727-0.121C166.449,21.9,165.956,21.702,165.548,21.387 M168.877,25.803c0.456,0,0.791-0.067,1.008-0.202
		c0.216-0.134,0.324-0.317,0.324-0.551c0-0.246-0.135-0.44-0.403-0.588c-0.27-0.146-0.578-0.219-0.929-0.219
		c-0.375,0-0.69,0.067-0.946,0.202c-0.257,0.134-0.386,0.336-0.386,0.604c0,0.221,0.113,0.402,0.341,0.543
		C168.114,25.732,168.444,25.803,168.877,25.803"/>
	<path fill="#FFFFFF" d="M184.527,20.79c-0.292,0.235-0.625,0.436-0.999,0.605c-0.373,0.169-0.771,0.295-1.191,0.377
		c-0.421,0.081-0.85,0.122-1.288,0.122s-0.861-0.053-1.271-0.157c-0.42-0.105-0.815-0.263-1.183-0.473
		c-0.368-0.211-0.687-0.479-0.955-0.807c-0.281-0.327-0.5-0.722-0.657-1.184c-0.158-0.461-0.237-0.989-0.237-1.585v-5.45h6.854
		v1.734h-4.872v3.873c0,0.562,0.165,1.021,0.499,1.385c0.333,0.362,0.773,0.602,1.322,0.719c0.538,0.128,1.154,0.128,1.85,0
		c0.695-0.129,1.404-0.403,2.129-0.824V20.79z M187.77,15.831h2.173v1.7h-2.173v5.346l-1.963-0.019V11.433h1.963V15.831z"/>
	<path fill="#FFFFFF" d="M191.695,23.624l0.146-4.172h1.336c0.25,0,0.473,0.101,0.667,0.302c0.195,0.202,0.278,0.477,0.251,0.824
		l-0.501,3.839h-1.189c-0.167,0-0.327-0.083-0.479-0.249C191.771,24,191.695,23.819,191.695,23.624"/>
	<path fill="#FFFFFF" d="M86.606,33.315l1.426,7.764c0.032,0.153,0.062,0.252,0.092,0.299c0.031,0.046,0.098,0.07,0.2,0.07
		c0.082,0,0.139-0.026,0.169-0.078c0.031-0.051,0.062-0.143,0.093-0.275l1.334-7.779h1.796l-1.504,8.408
		c-0.041,0.174-0.112,0.353-0.215,0.537c-0.103,0.184-0.23,0.348-0.384,0.491c-0.164,0.144-0.353,0.26-0.567,0.353
		c-0.216,0.092-0.45,0.139-0.706,0.139c-0.491,0-0.896-0.139-1.213-0.415c-0.316-0.276-0.521-0.645-0.614-1.104l-0.781-4.266
		l-0.722,4.266c-0.092,0.46-0.299,0.828-0.621,1.104s-0.724,0.415-1.205,0.415c-0.266,0-0.506-0.047-0.72-0.139
		c-0.216-0.093-0.405-0.209-0.568-0.353c-0.154-0.144-0.282-0.308-0.384-0.491c-0.103-0.185-0.169-0.363-0.199-0.537l-1.504-8.408
		h1.795l1.335,7.779c0.021,0.133,0.046,0.225,0.077,0.275c0.03,0.052,0.092,0.078,0.184,0.078c0.093,0,0.156-0.024,0.191-0.07
		c0.036-0.047,0.069-0.146,0.101-0.299l1.427-7.764H86.606z"/>
	<path fill="#FFFFFF" d="M95.549,43.289c-1.003,0.011-1.803-0.313-2.401-0.967c-0.599-0.655-0.898-1.586-0.898-2.793
		c0-0.563,0.08-1.071,0.239-1.527c0.158-0.454,0.386-0.846,0.682-1.174c0.287-0.316,0.632-0.564,1.036-0.744
		c0.404-0.179,0.852-0.273,1.343-0.283c1.043,0.01,1.839,0.355,2.386,1.035c0.548,0.681,0.821,1.579,0.821,2.693
		c0,1.207-0.273,2.138-0.821,2.793C97.388,42.976,96.592,43.3,95.549,43.289 M95.549,37.274c-0.583,0.01-1.003,0.222-1.259,0.637
		c-0.255,0.414-0.383,0.97-0.383,1.664c0,0.705,0.12,1.259,0.36,1.657c0.24,0.399,0.667,0.595,1.281,0.584
		c0.562,0.011,0.961-0.185,1.196-0.584c0.236-0.398,0.354-0.952,0.354-1.657c0-0.706-0.117-1.264-0.354-1.673
		C96.51,37.494,96.11,37.284,95.549,37.274"/>
	<path fill="#FFFFFF" d="M101.669,36.706c0.103-0.153,0.281-0.302,0.537-0.445s0.572-0.215,0.951-0.215h1.305v1.504h-0.752
		c-0.532,0-0.965,0.141-1.297,0.422s-0.498,0.678-0.498,1.189v3.867h-1.657v-4.864c0-0.266-0.064-0.45-0.192-0.552
		c-0.129-0.103-0.346-0.154-0.651-0.154v-1.381c0.275-0.062,0.542-0.08,0.797-0.054c0.256,0.024,0.486,0.074,0.691,0.146
		c0.214,0.062,0.389,0.143,0.521,0.246C101.557,36.517,101.638,36.614,101.669,36.706"/>
	<rect x="105.244" y="33.33" fill="#FFFFFF" width="1.673" height="9.714"/>
	<path fill="#FFFFFF" d="M111.136,35.815c0.461,0,0.839,0.077,1.136,0.23c0.296,0.153,0.507,0.302,0.629,0.445V33.33h1.688v7.504
		c0,0.276,0.053,0.473,0.155,0.59c0.102,0.118,0.307,0.178,0.613,0.178v1.335c-0.205,0.152-0.42,0.25-0.645,0.29
		c-0.225,0.042-0.436,0.036-0.629-0.015c-0.206-0.051-0.387-0.147-0.546-0.291c-0.158-0.144-0.273-0.323-0.345-0.537
		c-0.144,0.214-0.387,0.417-0.729,0.605c-0.343,0.19-0.791,0.284-1.343,0.284c-0.583,0-1.069-0.115-1.458-0.345
		c-0.389-0.23-0.7-0.53-0.937-0.898c-0.235-0.368-0.4-0.787-0.498-1.258c-0.097-0.471-0.146-0.946-0.146-1.427
		c0-0.481,0.058-0.937,0.176-1.365c0.118-0.431,0.301-0.804,0.545-1.121c0.256-0.317,0.575-0.57,0.959-0.76
		S110.604,35.815,111.136,35.815 M111.32,41.816c0.338,0,0.608-0.069,0.813-0.208c0.205-0.138,0.363-0.325,0.476-0.56
		c0.113-0.226,0.189-0.479,0.229-0.761c0.041-0.28,0.062-0.559,0.062-0.836c0-0.297-0.022-0.577-0.068-0.844
		c-0.047-0.266-0.13-0.501-0.253-0.706c-0.124-0.192-0.287-0.35-0.491-0.468c-0.205-0.117-0.466-0.176-0.783-0.176
		c-0.327,0-0.588,0.062-0.782,0.185c-0.195,0.122-0.338,0.28-0.43,0.475c-0.104,0.205-0.17,0.435-0.199,0.69
		c-0.031,0.256-0.046,0.521-0.046,0.799c0,0.276,0.015,0.557,0.046,0.843c0.029,0.287,0.103,0.547,0.215,0.783
		c0.102,0.235,0.251,0.424,0.444,0.568C110.748,41.744,111.003,41.816,111.32,41.816"/>
	<polygon fill="#FFFFFF" points="127.386,34.757 124.808,34.757 124.808,43.044 123.136,43.044 123.136,34.757 120.542,34.757 
		120.542,33.315 127.386,33.315 	"/>
	<path fill="#FFFFFF" d="M129.902,43.289c-1.002,0.011-1.803-0.313-2.401-0.967c-0.598-0.655-0.897-1.586-0.897-2.793
		c0-0.563,0.08-1.071,0.238-1.527c0.157-0.454,0.386-0.846,0.683-1.174c0.286-0.316,0.631-0.564,1.036-0.744
		c0.403-0.179,0.851-0.273,1.342-0.283c1.044,0.01,1.839,0.355,2.387,1.035c0.547,0.681,0.82,1.579,0.82,2.693
		c0,1.207-0.273,2.138-0.82,2.793C131.741,42.976,130.946,43.3,129.902,43.289 M129.902,37.274c-0.583,0.01-1.002,0.222-1.258,0.637
		c-0.256,0.414-0.384,0.97-0.384,1.664c0,0.705,0.12,1.259,0.36,1.657c0.24,0.399,0.668,0.595,1.281,0.584
		c0.563,0.011,0.962-0.185,1.197-0.584c0.235-0.398,0.353-0.952,0.353-1.657c0-0.706-0.117-1.264-0.353-1.673
		C130.864,37.494,130.465,37.284,129.902,37.274"/>
	<path fill="#FFFFFF" d="M137.835,43.258c-0.469,0-0.856-0.074-1.158-0.223c-0.301-0.147-0.508-0.299-0.621-0.452v3.591h-1.673
		v-7.919c0-0.274-0.051-0.468-0.153-0.575c-0.102-0.106-0.307-0.16-0.612-0.16v-1.335c0.397-0.287,0.819-0.382,1.265-0.284
		c0.444,0.097,0.744,0.361,0.898,0.79c0.132-0.205,0.373-0.403,0.72-0.599c0.349-0.194,0.799-0.291,1.351-0.291
		c0.572,0,1.054,0.117,1.442,0.354c0.389,0.235,0.701,0.536,0.937,0.905c0.234,0.378,0.404,0.802,0.506,1.272
		c0.103,0.471,0.154,0.942,0.154,1.411c0,0.492-0.062,0.949-0.186,1.374c-0.122,0.425-0.306,0.796-0.551,1.113
		c-0.256,0.316-0.576,0.567-0.96,0.751C138.81,43.166,138.357,43.258,137.835,43.258 M137.651,37.259
		c-0.349,0-0.624,0.072-0.828,0.215c-0.205,0.144-0.363,0.327-0.477,0.552c-0.112,0.235-0.187,0.49-0.222,0.768
		c-0.036,0.276-0.054,0.553-0.054,0.828c0,0.308,0.021,0.594,0.061,0.859c0.041,0.267,0.123,0.501,0.246,0.705
		c0.112,0.195,0.271,0.349,0.477,0.461c0.203,0.113,0.47,0.17,0.797,0.17c0.317,0,0.572-0.06,0.768-0.178
		c0.193-0.116,0.343-0.277,0.445-0.482c0.102-0.195,0.171-0.423,0.206-0.684c0.037-0.261,0.054-0.529,0.054-0.806
		c0-0.275-0.017-0.554-0.054-0.836c-0.035-0.281-0.108-0.54-0.222-0.774c-0.103-0.235-0.25-0.428-0.445-0.576
		C138.21,37.332,137.958,37.259,137.651,37.259"/>
	<path fill="#FFFFFF" d="M17.624,18.313c-0.215-0.648-0.503-1.249-0.865-1.802c-0.38-0.554-0.814-1.034-1.305-1.446
		c-0.348-0.285-0.719-0.529-1.114-0.735v0.001c-0.261-0.157-0.548-0.318-0.755-0.394c-0.536,0.614-1.066,1.14-1.743,1.666
		c0.167,0.115,0.422,0.288,0.802,0.525l-0.001,0.001c0.007,0.004,0.023,0.013,0.032,0.019c0.099,0.062,0.199,0.124,0.315,0.193
		c0.337,0.213,0.793,0.511,0.899,0.598c0.316,0.251,0.584,0.536,0.806,0.852c0.222,0.316,0.399,0.661,0.534,1.032
		c0.134,0.372,0.209,0.738,0.225,1.103l0.023,0.948h2.467V20.28C17.944,19.616,17.837,18.961,17.624,18.313"/>
	<polygon fill="#FFFFFF" points="147.119,33.326 149.142,33.326 149.142,37.535 149.173,37.535 152.599,33.326 154.729,33.326 
		150.915,37.691 155.131,43.01 152.66,43.01 149.173,38.322 149.142,38.322 149.142,43.01 147.119,43.01 	"/>
	<path fill="#FFFFFF" d="M166.836,36.375c-0.017,0.076-1.104,4.908-1.104,4.908s-1.642-4.841-1.664-4.908h-0.907
		c-0.021,0.069-1.517,4.994-1.517,4.994s-1.232-4.92-1.252-4.994h-1.622c0.034,0.123,1.834,6.563,1.854,6.635h1.529
		c0.022-0.067,1.405-4.239,1.405-4.239s1.535,4.175,1.56,4.239h1.544c0.019-0.073,1.597-6.515,1.626-6.635H166.836z"/>
	<path fill="#FFFFFF" d="M173.489,41.973v1.037h1.784v-4.506c0-1.186-0.333-2.284-2.751-2.284c-1.918,0-2.941,0.715-2.968,2.064
		h1.909c0.002-0.028,0.004-0.057,0.004-0.057c0.026-0.468,0.082-1.441,1.038-1.441c0.689,0,0.983,0.407,0.983,1.364v1.18
		l-0.048,0.001c-1.026,0.042-4.152,0.165-4.152,2.2c0,0.933,0.868,1.634,2.02,1.634C172.799,43.165,173.489,41.973,173.489,41.973
		 M172.04,42.288c-0.559,0-0.906-0.383-0.906-0.997c0-0.79,0.774-1.258,2.302-1.394l0.054-0.003v0.548
		C173.489,41.359,172.991,42.288,172.04,42.288"/>
	<path fill="#FFFFFF" d="M180.084,43.166c0.417,0,0.829-0.04,1.266-0.081l0.008-0.001v-0.881c-0.265,0.072-0.558,0.085-0.791,0.085
		c-0.757,0-1.015-0.29-1.015-1.152v-4.039h2.086v-0.722h-2.086v-2.582c-0.133,0.073-1.735,0.951-1.783,0.979v1.604h-1.384v0.722
		h1.384v4.251C177.769,42.861,178.654,43.166,180.084,43.166"/>
	<path fill="#FFFFFF" d="M185.841,43.166c1.06,0,1.517-0.132,2.346-0.453v-0.604c-0.393,0.136-0.894,0.278-1.396,0.278
		c-2.177,0-2.881-2.311-2.881-3.43v-0.049h4.418v-0.205c0-1.601-1.049-2.483-2.953-2.483c-2.155,0-3.249,1.064-3.249,3.162
		C182.125,42.796,184.724,43.166,185.841,43.166 M183.909,38.242c0.065-0.438,0.332-1.456,1.402-1.456
		c1.258,0,1.295,1.313,1.295,1.464v0.049h-2.705L183.909,38.242z"/>
	<path fill="#FFFFFF" d="M194.099,37.89v-1.662c-1.303,0.101-1.943,0.935-2.469,1.831l-0.066,0.104v-1.788h-1.783v6.635h1.783
		v-2.963C191.563,38.508,192.277,37.901,194.099,37.89"/>
	<path fill="#FFFFFF" d="M36.623,13.691c0.3,0.363,0.536,0.746,0.711,1.149c0.173,0.402,0.269,0.786,0.284,1.148v0.735h2.466v-0.592
		c0-0.727-0.135-1.435-0.403-2.122c-0.269-0.688-0.625-1.307-1.066-1.86c-0.459-0.553-0.988-1.02-1.588-1.399
		c-0.103-0.061-0.209-0.108-0.312-0.161c-0.199,0.695-0.498,1.633-0.851,2.423C36.144,13.217,36.403,13.437,36.623,13.691"/>
	<path fill="#FFFFFF" d="M36.149,6.936V6.058h-2.703v0.83c0,2.228-0.371,3.939-1.114,5.132c-0.742,1.193-2.063,1.956-3.958,2.288
		v2.371c1.421-0.143,2.626-0.501,3.613-1.08c0.989-0.577,1.79-1.299,2.406-2.169c0.17-0.235,0.327-0.489,0.476-0.758
		c0.434-0.957,0.859-2.37,1.085-3.29C36.083,8.593,36.149,7.776,36.149,6.936"/>
	<path fill="#FFFFFF" d="M42.525,19.38c-0.411-0.426-0.901-0.763-1.47-1.008c-0.569-0.244-1.201-0.367-1.896-0.367
		c-0.711,0-1.352,0.123-1.92,0.367c-0.569,0.245-1.051,0.582-1.446,1.008c-0.395,0.427-0.695,0.929-0.9,1.506
		c-0.206,0.576-0.309,1.197-0.309,1.86c0,1.36,0.407,2.484,1.221,3.378c0.813,0.893,1.933,1.34,3.354,1.34
		c0.695,0,1.327-0.12,1.896-0.356c0.568-0.236,1.059-0.562,1.47-0.972c0.396-0.426,0.702-0.928,0.925-1.505
		c0.221-0.576,0.332-1.204,0.332-1.885c0-0.663-0.111-1.284-0.332-1.86C43.228,20.309,42.921,19.807,42.525,19.38 M40.546,24.489
		c-0.34,0.449-0.818,0.675-1.435,0.675c-0.663,0-1.137-0.226-1.422-0.675c-0.284-0.451-0.427-1.032-0.427-1.743
		s0.154-1.292,0.462-1.743c0.309-0.448,0.786-0.675,1.435-0.675c0.695,0,1.186,0.237,1.47,0.711
		c0.284,0.475,0.427,1.044,0.427,1.707C41.056,23.457,40.886,24.038,40.546,24.489"/>
	<polygon fill="#FFFFFF" points="43.947,10.467 43.947,5.798 41.292,5.798 41.292,17.602 43.947,17.602 43.947,12.766 
		46.888,12.766 46.888,10.467 	"/>
	<path fill="#FFFFFF" d="M75.651,6.359c0.619,0.312,1.258,0.536,1.916,0.672c0.67,0.126,1.329,0.159,1.977,0.104
		c0.453-0.046,0.896-0.138,1.328-0.272L80.799,4.35c-0.193,0.057-1.273,0.292-1.478,0.315c-0.408,0.046-0.806,0.033-1.191-0.033
		c-0.386-0.069-0.762-0.188-1.124-0.358c-0.363-0.171-0.682-0.38-0.954-0.631l-0.698-0.664l-1.771,1.772l0.426,0.425
		C74.485,5.653,75.032,6.047,75.651,6.359"/>
	<path fill="#FFFFFF" d="M72.112,10.517h1.324c-0.16,0.192-0.297,0.402-0.408,0.626c-0.225,0.45-0.338,0.948-0.338,1.493
		c0,1.396,0.409,2.517,1.229,3.359c0.819,0.844,1.918,1.265,3.299,1.265c1.349,0,2.444-0.421,3.287-1.265
		c0.843-0.843,1.265-1.963,1.265-3.359c0-0.562-0.12-1.067-0.361-1.517c-0.112-0.208-0.249-0.41-0.41-0.603h1.253V8.108H72.112
		V10.517z M75.821,11.143c0.305-0.417,0.771-0.626,1.396-0.626c0.658,0,1.133,0.227,1.422,0.675c0.271,0.45,0.408,0.938,0.408,1.469
		c0,0.723-0.145,1.297-0.433,1.722c-0.29,0.427-0.779,0.639-1.47,0.639c-0.594,0-1.04-0.212-1.337-0.639
		c-0.296-0.425-0.445-0.999-0.445-1.722C75.363,12.083,75.517,11.576,75.821,11.143"/>
	<path fill="#FFFFFF" d="M87.116,26.242c0.4-0.434,0.714-0.943,0.939-1.529c0.224-0.586,0.336-1.224,0.336-1.915
		c0-0.674-0.112-1.303-0.336-1.89c-0.226-0.586-0.539-1.095-0.939-1.529c-0.418-0.434-0.916-0.774-1.493-1.022
		c-0.578-0.25-1.221-0.374-1.927-0.374c-0.723,0-1.373,0.124-1.951,0.374c-0.578,0.248-1.067,0.589-1.469,1.022
		c-0.402,0.435-0.707,0.943-0.916,1.529c-0.208,0.587-0.313,1.216-0.313,1.89c0,1.382,0.413,2.525,1.24,3.434
		c0.827,0.905,1.963,1.36,3.408,1.36c0.706,0,1.349-0.121,1.927-0.361C86.2,26.989,86.698,26.659,87.116,26.242 M83.647,25.254
		c-0.674,0-1.155-0.228-1.444-0.686c-0.289-0.457-0.434-1.047-0.434-1.771c0-0.722,0.156-1.308,0.47-1.757s0.799-0.675,1.457-0.675
		c0.706,0,1.203,0.237,1.493,0.711c0.289,0.474,0.434,1.047,0.434,1.721c0,0.724-0.174,1.313-0.518,1.771
		C84.76,25.026,84.273,25.254,83.647,25.254"/>
	<polygon fill="#FFFFFF" points="86.947,10.107 85.479,10.107 85.479,5.773 82.878,5.773 82.878,17.356 85.479,17.356 
		85.479,12.419 86.947,12.419 86.947,17.452 89.62,17.452 89.62,5.46 86.947,5.46 	"/>
	<polygon fill="#FFFFFF" points="95.186,22.294 102.82,22.294 102.82,27.063 105.493,27.063 105.493,19.934 95.186,19.934 	"/>
	<path fill="#FFFFFF" d="M101.688,16.442v-1.108h0.121c1.621,0,2.845-0.465,3.672-1.397c0.827-0.931,1.24-2.166,1.24-3.709V5.46
		h-2.648v1.512v1.089v2.385v0.481v0.067h-0.007c-0.008,0.204-0.047,0.414-0.126,0.631c-0.089,0.241-0.229,0.466-0.422,0.674
		c-0.192,0.194-0.453,0.358-0.783,0.495c-0.328,0.137-0.733,0.204-1.215,0.204h-2.673c-0.932,0.017-1.574-0.18-1.927-0.591
		c-0.354-0.408-0.53-0.806-0.53-1.191v-0.771h5.957V8.061h-5.957V5.46h-2.649v4.768c0,1.591,0.4,2.84,1.204,3.745
		c0.803,0.908,2.039,1.361,3.709,1.361h0.217v1.108h-6.84v2.312h16.448v-2.312H101.688z"/>
	<path fill="#FFFFFF" d="M104.073,10.994v-0.067c0,0.022-0.006,0.046-0.007,0.067H104.073z"/>
	<g>
		<defs>
			<path id="SVGID_5_" d="M143.72,23.341c0,0.51-0.209,0.719-0.809,0.719c-0.446,0-1.528,0.015-2.823-0.009v3.432
				c0.993,0.065,4.593,0.26,5.699-0.308c1.229-0.598,1.708-1.677,1.708-3.834v-8.799c-2.922-6.063-3.775-10.154-3.775-10.154V23.341
				z"/>
		</defs>
		<use xlink:href="#SVGID_5_"  overflow="visible" fill="#FFFFFF"/>
		<clipPath id="SVGID_6_">
			<use xlink:href="#SVGID_5_"  overflow="visible"/>
		</clipPath>
		<rect x="140.088" y="4.388" clip-path="url(#SVGID_6_)" fill="#FFFFFF" width="7.407" height="23.354"/>
	</g>
	<path fill="#FFFFFF" d="M17.006,6.371h-2.663c-1.416,2.703-3.432,5.145-6.024,7.104C5.772,15.398,2.931,16.656,0,17.292v2.48
		c3.406-0.659,6.718-2.068,9.677-4.278c0.035-0.025,0.072-0.052,0.108-0.079c3.232-2.442,5.665-5.558,7.25-9.005L17.006,6.371z"/>
	<rect x="154.569" y="37.621" fill="#FFFFFF" width="3.21" height="1.296"/>
</g>
</svg>
